<?xml version="1.0" encoding="UTF-8"?>
<svg width="200px" height="100px" viewBox="0 0 200 100" version="1.1" xmlns="http://www.w3.org/2000/svg" xmlns:xlink="http://www.w3.org/1999/xlink">
    <!-- Generator: Sketch 53.2 (72643) - https://sketchapp.com -->
    <title>Logo Vert</title>
    <desc>Created with Sketch.</desc>
    <g id="Logo-Vert" stroke="none" stroke-width="1" fill="none" fill-rule="evenodd">
        <g id="AANM_vert_CMYK">
            <path d="M5.0967,71.4375 L9.4257,71.4375 L7.3067,64.8315 L7.2607,64.8315 L5.0967,71.4375 Z M4.8467,63.1695 C5.2337,62.1225 6.1217,61.2785 7.2837,61.2785 C8.4907,61.2785 9.3347,62.0755 9.7207,63.1695 L14.1857,75.5605 C14.3217,75.9235 14.3677,76.2435 14.3677,76.4025 C14.3677,77.2915 13.6387,77.9065 12.7947,77.9065 C11.8397,77.9065 11.3617,77.4065 11.1337,76.7215 L10.4497,74.5815 L4.1177,74.5815 L3.4347,76.6995 C3.2067,77.4065 2.7277,77.9065 1.7957,77.9065 C0.8827,77.9065 0.1097,77.2225 0.1097,76.3115 C0.1097,75.9485 0.2227,75.6735 0.2687,75.5605 L4.8467,63.1695 Z" id="Fill-1" fill="#093A66"></path>
            <path d="M15.7715,67.1553 C15.7715,66.0613 16.6375,65.5153 17.4575,65.5153 C18.3235,65.5153 19.0525,65.8353 19.0525,66.8833 L19.0965,66.8833 C19.7125,65.9703 20.3725,65.5153 21.3985,65.5153 C22.1955,65.5153 22.9915,66.0853 22.9915,67.2683 C22.9915,68.3413 22.0125,68.4073 21.0335,68.8633 C20.0535,69.3193 19.0525,69.7523 19.0525,71.0503 L19.0525,76.0843 C19.0525,77.1773 18.3675,77.9063 17.4115,77.9063 C16.4555,77.9063 15.7715,77.1773 15.7715,76.0843 L15.7715,67.1553 Z" id="Fill-3" fill="#093A66"></path>
            <path d="M26.0986,68.5225 L25.3696,68.5225 C24.4806,68.5225 23.9336,67.9755 23.9336,67.0865 C23.9336,66.2665 24.5476,65.6515 25.3696,65.6515 L26.0986,65.6515 L26.0986,63.6925 C26.0986,62.6005 26.7806,61.8715 27.7376,61.8715 C28.6946,61.8715 29.3776,62.6005 29.3776,63.6925 L29.3776,65.6515 L30.3116,65.6515 C31.1546,65.6515 31.8826,66.0395 31.8826,67.0865 C31.8826,68.1125 31.1546,68.5225 30.3116,68.5225 L29.3776,68.5225 L29.3776,76.0845 C29.3776,77.1775 28.6946,77.9065 27.7376,77.9065 C26.7806,77.9065 26.0986,77.1775 26.0986,76.0845 L26.0986,68.5225 Z" id="Fill-5" fill="#093A66"></path>
            <path d="M39.9229,69.2051 C39.3069,69.2051 38.0549,68.2481 36.9849,68.2481 C36.3919,68.2481 35.8689,68.5221 35.8689,69.1601 C35.8689,70.6861 41.5629,70.4581 41.5629,74.1931 C41.5629,76.3801 39.7169,78.0421 36.8949,78.0421 C35.0489,78.0421 32.3159,76.9941 32.3159,75.5141 C32.3159,75.0141 32.8159,74.0571 33.7269,74.0571 C35.0029,74.0571 35.5719,75.1731 37.1209,75.1731 C38.1239,75.1731 38.4189,74.8531 38.4189,74.2381 C38.4189,72.7361 32.7249,72.9641 32.7249,69.2051 C32.7249,66.9281 34.5699,65.3791 37.1669,65.3791 C38.7839,65.3791 41.2679,66.1301 41.2679,67.7471 C41.2679,68.5001 40.6979,69.2051 39.9229,69.2051" id="Fill-7" fill="#093A66"></path>
            <path d="M53.3823,71.4375 L57.7113,71.4375 L55.5933,64.8315 L55.5473,64.8315 L53.3823,71.4375 Z M53.1323,63.1695 C53.5193,62.1225 54.4083,61.2785 55.5693,61.2785 C56.7763,61.2785 57.6203,62.0755 58.0063,63.1695 L62.4723,75.5605 C62.6073,75.9235 62.6533,76.2435 62.6533,76.4025 C62.6533,77.2915 61.9243,77.9065 61.0813,77.9065 C60.1263,77.9065 59.6473,77.4065 59.4193,76.7215 L58.7353,74.5815 L52.4033,74.5815 L51.7203,76.6995 C51.4923,77.4065 51.0143,77.9065 50.0813,77.9065 C49.1693,77.9065 48.3953,77.2225 48.3953,76.3115 C48.3953,75.9485 48.5083,75.6735 48.5543,75.5605 L53.1323,63.1695 Z" id="Fill-9" fill="#093A66"></path>
            <path d="M72.4795,69.0234 C71.6595,69.0234 70.9305,68.3844 69.8825,68.3844 C68.0155,68.3844 67.1265,70.0484 67.1265,71.7324 C67.1265,73.3494 68.1065,75.0364 69.8825,75.0364 C70.7025,75.0364 71.9325,74.3534 72.3195,74.3534 C73.0955,74.3534 73.7315,75.0134 73.7315,75.7894 C73.7315,77.4724 70.9085,78.0424 69.7235,78.0424 C66.1925,78.0424 63.8465,75.1504 63.8465,71.7324 C63.8465,68.4074 66.2605,65.3784 69.7235,65.3784 C71.0215,65.3784 73.7315,65.8574 73.7315,67.4524 C73.7315,68.1344 73.2545,69.0234 72.4795,69.0234" id="Fill-11" fill="#093A66"></path>
            <path d="M83.2544,69.0234 C82.4344,69.0234 81.7054,68.3844 80.6574,68.3844 C78.7904,68.3844 77.9014,70.0484 77.9014,71.7324 C77.9014,73.3494 78.8804,75.0364 80.6574,75.0364 C81.4774,75.0364 82.7074,74.3534 83.0944,74.3534 C83.8704,74.3534 84.5054,75.0134 84.5054,75.7894 C84.5054,77.4724 81.6834,78.0424 80.4984,78.0424 C76.9664,78.0424 74.6214,75.1504 74.6214,71.7324 C74.6214,68.4074 77.0354,65.3784 80.4984,65.3784 C81.7964,65.3784 84.5054,65.8574 84.5054,67.4524 C84.5054,68.1344 84.0294,69.0234 83.2544,69.0234" id="Fill-13" fill="#093A66"></path>
            <path d="M94.6953,70.6182 C94.5133,69.1822 93.6013,68.1122 92.0763,68.1122 C90.6183,68.1122 89.6393,69.2282 89.4803,70.6182 L94.6953,70.6182 Z M89.5473,72.8052 C89.7753,74.4222 91.1193,75.1732 92.6463,75.1732 C94.3303,75.1732 95.4933,73.8522 96.3573,73.8522 C97.0633,73.8522 97.7023,74.5572 97.7023,75.2642 C97.7023,76.6752 94.7863,78.0422 92.3493,78.0422 C88.6583,78.0422 86.1993,75.3542 86.1993,71.7322 C86.1993,68.4072 88.6143,65.3792 92.0763,65.3792 C95.6283,65.3792 97.9743,68.6132 97.9743,71.3472 C97.9743,72.3262 97.5423,72.8052 96.5413,72.8052 L89.5473,72.8052 Z" id="Fill-15" fill="#093A66"></path>
            <path d="M107.2979,69.2051 C106.6839,69.2051 105.4299,68.2481 104.3599,68.2481 C103.7689,68.2481 103.2429,68.5221 103.2429,69.1601 C103.2429,70.6861 108.9389,70.4581 108.9389,74.1931 C108.9389,76.3801 107.0939,78.0421 104.2689,78.0421 C102.4239,78.0421 99.6919,76.9941 99.6919,75.5141 C99.6919,75.0141 100.1929,74.0571 101.1039,74.0571 C102.3789,74.0571 102.9479,75.1731 104.4969,75.1731 C105.4979,75.1731 105.7949,74.8531 105.7949,74.2381 C105.7949,72.7361 100.1019,72.9641 100.1019,69.2051 C100.1019,66.9281 101.9449,65.3791 104.5419,65.3791 C106.1589,65.3791 108.6429,66.1301 108.6429,67.7471 C108.6429,68.5001 108.0719,69.2051 107.2979,69.2051" id="Fill-17" fill="#093A66"></path>
            <path d="M118.2588,69.2051 C117.6448,69.2051 116.3908,68.2481 115.3208,68.2481 C114.7288,68.2481 114.2038,68.5221 114.2038,69.1601 C114.2038,70.6861 119.8998,70.4581 119.8998,74.1931 C119.8998,76.3801 118.0548,78.0421 115.2298,78.0421 C113.3848,78.0421 110.6528,76.9941 110.6528,75.5141 C110.6528,75.0141 111.1538,74.0571 112.0638,74.0571 C113.3398,74.0571 113.9088,75.1731 115.4578,75.1731 C116.4588,75.1731 116.7558,74.8531 116.7558,74.2381 C116.7558,72.7361 111.0628,72.9641 111.0628,69.2051 C111.0628,66.9281 112.9058,65.3791 115.5018,65.3791 C117.1188,65.3791 119.6028,66.1301 119.6028,67.7471 C119.6028,68.5001 119.0328,69.2051 118.2588,69.2051" id="Fill-19" fill="#093A66"></path>
            <path d="M126.4189,71.4375 L130.7469,71.4375 L128.6289,64.8315 L128.5829,64.8315 L126.4189,71.4375 Z M126.1679,63.1695 C126.5559,62.1225 127.4439,61.2785 128.6059,61.2785 C129.8129,61.2785 130.6559,62.0755 131.0419,63.1695 L135.5079,75.5605 C135.6439,75.9235 135.6899,76.2435 135.6899,76.4025 C135.6899,77.2915 134.9609,77.9065 134.1169,77.9065 C133.1619,77.9065 132.6839,77.4065 132.4549,76.7215 L131.7719,74.5815 L125.4399,74.5815 L124.7569,76.6995 C124.5289,77.4065 124.0509,77.9065 123.1169,77.9065 C122.2049,77.9065 121.4319,77.2225 121.4319,76.3115 C121.4319,75.9485 121.5449,75.6735 121.5909,75.5605 L126.1679,63.1695 Z" id="Fill-21" fill="#093A66"></path>
            <path d="M144.0635,75.0361 C145.7715,75.0361 146.6135,73.2591 146.6135,71.7321 C146.6135,70.1831 145.7715,68.3851 144.0635,68.3851 C142.3085,68.3851 141.4895,70.0241 141.4895,71.6191 C141.4895,73.2151 142.2625,75.0361 144.0635,75.0361 L144.0635,75.0361 Z M137.9305,62.0541 C137.9305,60.9591 138.6145,60.2301 139.5715,60.2301 C140.5265,60.2301 141.2105,60.9591 141.2105,62.0541 L141.2105,66.5171 C142.0755,65.7661 143.1925,65.3791 144.3315,65.3791 C147.8625,65.3791 149.6165,68.6821 149.6165,71.8701 C149.6165,74.9671 147.5205,78.0421 144.2175,78.0421 C143.1005,78.0421 141.8255,77.5411 141.2105,76.5401 C141.0045,77.4061 140.4825,77.9061 139.5715,77.9061 C138.6145,77.9061 137.9305,77.1781 137.9305,76.0841 L137.9305,62.0541 Z" id="Fill-23" fill="#093A66"></path>
            <path d="M152.2187,67.3369 C152.2187,66.2449 152.9027,65.5159 153.8577,65.5159 C154.8147,65.5159 155.4987,66.2449 155.4987,67.3369 L155.4987,76.0839 C155.4987,77.1779 154.8147,77.9059 153.8577,77.9059 C152.9027,77.9059 152.2187,77.1779 152.2187,76.0839 L152.2187,67.3369 Z M155.7027,62.3949 C155.7027,63.4199 154.8837,64.2859 153.8577,64.2859 C152.8787,64.2859 152.0147,63.3979 152.0147,62.3949 C152.0147,61.4619 152.8787,60.5959 153.8577,60.5959 C154.8387,60.5959 155.7027,61.4379 155.7027,62.3949 L155.7027,62.3949 Z" id="Fill-25" fill="#093A66"></path>
            <path d="M158.5312,62.0537 C158.5312,60.9587 159.2142,60.2307 160.1712,60.2307 C161.1282,60.2307 161.8102,60.9587 161.8102,62.0537 L161.8102,76.0837 C161.8102,77.1777 161.1282,77.9067 160.1712,77.9067 C159.2142,77.9067 158.5312,77.1777 158.5312,76.0837 L158.5312,62.0537 Z" id="Fill-27" fill="#093A66"></path>
            <path d="M164.8447,67.3369 C164.8447,66.2449 165.5277,65.5159 166.4847,65.5159 C167.4417,65.5159 168.1237,66.2449 168.1237,67.3369 L168.1237,76.0839 C168.1237,77.1779 167.4417,77.9059 166.4847,77.9059 C165.5277,77.9059 164.8447,77.1779 164.8447,76.0839 L164.8447,67.3369 Z M168.3287,62.3949 C168.3287,63.4199 167.5097,64.2859 166.4847,64.2859 C165.5047,64.2859 164.6387,63.3979 164.6387,62.3949 C164.6387,61.4619 165.5047,60.5959 166.4847,60.5959 C167.4627,60.5959 168.3287,61.4379 168.3287,62.3949 L168.3287,62.3949 Z" id="Fill-29" fill="#093A66"></path>
            <path d="M172,68.5225 L171.271,68.5225 C170.383,68.5225 169.835,67.9755 169.835,67.0865 C169.835,66.2665 170.449,65.6515 171.271,65.6515 L172,65.6515 L172,63.6925 C172,62.6005 172.683,61.8715 173.64,61.8715 C174.597,61.8715 175.278,62.6005 175.278,63.6925 L175.278,65.6515 L176.214,65.6515 C177.056,65.6515 177.784,66.0395 177.784,67.0865 C177.784,68.1125 177.056,68.5225 176.214,68.5225 L175.278,68.5225 L175.278,76.0845 C175.278,77.1775 174.597,77.9065 173.64,77.9065 C172.683,77.9065 172,77.1775 172,76.0845 L172,68.5225 Z" id="Fill-31" fill="#093A66"></path>
            <path d="M178.8799,67.7715 C178.7889,67.5185 178.7209,67.2685 178.7209,66.9275 C178.7209,66.1075 179.5849,65.5155 180.2699,65.5155 C181.0669,65.5155 181.6369,65.9485 181.9089,66.6765 L184.1639,72.8485 L186.5789,66.6765 C186.8519,65.9485 187.4209,65.5155 188.2189,65.5155 C188.9009,65.5155 189.7669,66.1075 189.7669,66.9275 C189.7669,67.2685 189.7229,67.5185 189.6079,67.7715 L184.1179,81.4355 C183.8449,82.1205 183.3449,82.7345 182.5689,82.7345 C181.4529,82.7345 180.8609,82.0295 180.8609,81.3235 C180.8609,81.0035 180.9519,80.6625 181.0669,80.3665 L182.5009,76.8125 L178.8799,67.7715 Z" id="Fill-33" fill="#093A66"></path>
            <path d="M0.9517,85.1123 C0.9517,83.9733 1.6807,83.3363 2.6597,83.3363 C3.0937,83.3363 3.7987,83.6763 4.0957,84.0873 L11.3147,93.7213 L11.3617,93.7213 L11.3617,85.1123 C11.3617,83.9733 12.0907,83.3363 13.0697,83.3363 C14.0487,83.3363 14.7777,83.9733 14.7777,85.1123 L14.7777,98.0503 C14.7777,99.1893 14.0487,99.8273 13.0697,99.8273 C12.6357,99.8273 11.9527,99.4843 11.6347,99.0743 L4.4137,89.5543 L4.3677,89.5543 L4.3677,98.0503 C4.3677,99.1893 3.6387,99.8273 2.6597,99.8273 C1.6807,99.8273 0.9517,99.1893 0.9517,98.0503 L0.9517,85.1123 Z" id="Fill-35" fill="#093A66"></path>
            <path d="M25.3081,92.5381 C25.1261,91.1021 24.2161,90.0331 22.6891,90.0331 C21.2321,90.0331 20.2521,91.1491 20.0931,92.5381 L25.3081,92.5381 Z M20.1621,94.7251 C20.3901,96.3421 21.7321,97.0941 23.2591,97.0941 C24.9451,97.0941 26.1051,95.7721 26.9721,95.7721 C27.6781,95.7721 28.3161,96.4771 28.3161,97.1841 C28.3161,98.5961 25.4011,99.9631 22.9621,99.9631 C19.2731,99.9631 16.8141,97.2751 16.8141,93.6531 C16.8141,90.3281 19.2271,87.2991 22.6891,87.2991 C26.2431,87.2991 28.5891,90.5331 28.5891,93.2671 C28.5891,94.2461 28.1571,94.7251 27.1541,94.7251 L20.1621,94.7251 Z" id="Fill-37" fill="#093A66"></path>
            <path d="M31.4653,90.4424 L30.7363,90.4424 C29.8483,90.4424 29.3013,89.8954 29.3013,89.0064 C29.3013,88.1874 29.9173,87.5714 30.7363,87.5714 L31.4653,87.5714 L31.4653,85.6134 C31.4653,84.5204 32.1503,83.7924 33.1053,83.7924 C34.0623,83.7924 34.7463,84.5204 34.7463,85.6134 L34.7463,87.5714 L35.6793,87.5714 C36.5233,87.5714 37.2523,87.9594 37.2523,89.0064 C37.2523,90.0334 36.5233,90.4424 35.6793,90.4424 L34.7463,90.4424 L34.7463,98.0044 C34.7463,99.0984 34.0623,99.8274 33.1053,99.8274 C32.1503,99.8274 31.4653,99.0984 31.4653,98.0044 L31.4653,90.4424 Z" id="Fill-39" fill="#093A66"></path>
            <path d="M38.604,90.3057 C38.376,89.6457 38.263,89.2357 38.263,88.7567 C38.263,88.0287 38.945,87.4367 39.902,87.4367 C40.7,87.4367 41.269,87.9587 41.451,88.7347 L43.341,94.9977 L43.387,94.9977 L45.301,88.8697 C45.551,87.9817 46.006,87.4367 46.963,87.4367 C47.92,87.4367 48.376,87.9817 48.626,88.8697 L50.539,94.9977 L50.585,94.9977 L52.475,88.7347 C52.657,87.9587 53.226,87.4367 54.023,87.4367 C54.98,87.4367 55.665,88.0287 55.665,89.0297 C55.665,89.3947 55.505,89.7587 55.346,90.2607 L52.543,98.1627 C52.202,99.1197 51.633,99.8267 50.562,99.8267 C49.559,99.8267 48.968,99.2577 48.671,98.3007 L46.985,93.0167 L46.94,93.0167 L45.255,98.3007 C44.958,99.2577 44.366,99.8267 43.365,99.8267 C42.293,99.8267 41.724,99.1197 41.382,98.1627 L38.604,90.3057 Z" id="Fill-41" fill="#093A66"></path>
            <path d="M59.7969,93.6533 C59.7969,95.2253 60.6169,96.9563 62.3929,96.9563 C64.1699,96.9563 64.9899,95.2253 64.9899,93.6533 C64.9899,92.0823 64.1929,90.3053 62.3929,90.3053 C60.5939,90.3053 59.7969,92.0823 59.7969,93.6533 M68.2689,93.6533 C68.2689,97.0713 65.9239,99.9633 62.3929,99.9633 C58.8619,99.9633 56.5159,97.0713 56.5159,93.6533 C56.5159,90.3283 58.9309,87.2993 62.3929,87.2993 C65.8559,87.2993 68.2689,90.3283 68.2689,93.6533" id="Fill-43" fill="#093A66"></path>
            <path d="M70.5137,89.0762 C70.5137,87.9812 71.3797,87.4362 72.1997,87.4362 C73.0657,87.4362 73.7947,87.7552 73.7947,88.8032 L73.8387,88.8032 C74.4547,87.8902 75.1157,87.4362 76.1407,87.4362 C76.9377,87.4362 77.7337,88.0062 77.7337,89.1892 C77.7337,90.2612 76.7547,90.3282 75.7757,90.7842 C74.7957,91.2402 73.7947,91.6722 73.7947,92.9712 L73.7947,98.0042 C73.7947,99.0982 73.1107,99.8272 72.1537,99.8272 C71.1987,99.8272 70.5137,99.0982 70.5137,98.0042 L70.5137,89.0762 Z" id="Fill-45" fill="#093A66"></path>
            <path d="M79.4028,83.9736 C79.4028,82.8796 80.0858,82.1506 81.0428,82.1506 C81.9998,82.1506 82.6818,82.8796 82.6818,83.9736 L82.6818,91.6256 L86.2818,88.1406 C86.8048,87.6406 87.3298,87.4366 87.7618,87.4366 C88.5818,87.4366 89.1508,88.1876 89.1508,88.9156 C89.1508,89.3946 88.9908,89.7826 88.5128,90.2146 L85.5968,92.8116 L89.4478,97.3216 C89.7428,97.6626 89.8578,98.0506 89.8578,98.4136 C89.8578,99.2806 89.1738,99.9626 88.3088,99.9626 C87.7158,99.9626 87.2608,99.5986 86.7358,98.9606 L82.7288,94.0186 L82.6818,94.0186 L82.6818,98.0036 C82.6818,99.0986 81.9998,99.8276 81.0428,99.8276 C80.0858,99.8276 79.4028,99.0986 79.4028,98.0036 L79.4028,83.9736 Z" id="Fill-47" fill="#093A66"></path>
            <path d="M100.1592,85.0898 C100.2972,84.2708 101.1842,83.3358 102.3902,83.3358 C103.5312,83.3358 104.4192,84.1548 104.6702,84.9758 L107.3572,93.9958 L107.4012,93.9958 L110.0912,84.9758 C110.3412,84.1548 111.2292,83.3358 112.3682,83.3358 C113.5752,83.3358 114.4642,84.2708 114.5992,85.0898 L116.7182,97.7998 C116.7412,97.9358 116.7412,98.0718 116.7412,98.1858 C116.7412,99.1898 116.0132,99.8268 115.0992,99.8268 C113.9392,99.8268 113.4822,99.3018 113.3232,98.2328 L111.9802,88.9628 L111.9342,88.9628 L109.2022,98.5048 C109.0432,99.0518 108.6092,99.8268 107.3792,99.8268 C106.1492,99.8268 105.7182,99.0518 105.5572,98.5048 L102.8242,88.9628 L102.7782,88.9628 L101.4352,98.2328 C101.2752,99.3018 100.8192,99.8268 99.6582,99.8268 C98.7462,99.8268 98.0172,99.1898 98.0172,98.1858 C98.0172,98.0718 98.0172,97.9358 98.0412,97.7998 L100.1592,85.0898 Z" id="Fill-49" fill="#093A66"></path>
            <path d="M124.3135,96.9561 C126.0235,96.9561 126.8435,95.2261 126.8435,93.6531 C126.8435,92.0821 126.0455,90.3061 124.3135,90.3061 C122.5145,90.3061 121.7175,92.0821 121.7175,93.6531 C121.7175,95.2261 122.5375,96.9561 124.3135,96.9561 L124.3135,96.9561 Z M130.1225,97.6851 C130.1225,98.5291 130.1225,99.8271 128.5515,99.8271 C127.5945,99.8271 127.2075,99.3021 126.9785,98.4371 C126.1365,99.4391 125.1115,99.9631 123.8595,99.9631 C120.7845,99.9631 118.4385,97.3441 118.4385,93.6531 C118.4385,90.0551 120.8535,87.2991 123.8595,87.2991 C125.0665,87.2991 126.2505,87.7771 126.9785,88.8031 C127.0705,88.0061 127.7535,87.4361 128.5515,87.4361 C130.1225,87.4361 130.1225,88.7341 130.1225,89.5761 L130.1225,97.6851 Z" id="Fill-51" fill="#093A66"></path>
            <path d="M132.9082,89.2578 C132.9082,88.1648 133.5932,87.4368 134.5502,87.4368 C135.3912,87.4368 135.9382,87.8908 136.0522,88.6438 C136.6892,87.7548 137.6692,87.2988 139.2182,87.2988 C141.7922,87.2988 143.7062,88.9388 143.7062,91.7188 L143.7062,98.0038 C143.7062,99.0988 143.0212,99.8268 142.0642,99.8268 C141.1092,99.8268 140.4252,99.0988 140.4252,98.0038 L140.4252,92.2878 C140.4252,90.7618 139.4682,90.0328 138.2852,90.0328 C136.9402,90.0328 136.1892,91.0118 136.1892,92.2878 L136.1892,98.0038 C136.1892,99.0988 135.5052,99.8268 134.5502,99.8268 C133.5932,99.8268 132.9082,99.0988 132.9082,98.0038 L132.9082,89.2578 Z" id="Fill-53" fill="#093A66"></path>
            <path d="M146.7861,89.2578 C146.7861,88.1648 147.4711,87.4368 148.4261,87.4368 C149.3831,87.4368 150.0671,88.1648 150.0671,89.2578 L150.0671,98.0038 C150.0671,99.0988 149.3831,99.8268 148.4261,99.8268 C147.4711,99.8268 146.7861,99.0988 146.7861,98.0038 L146.7861,89.2578 Z M151.2661,84.3158 C151.2661,85.3408 150.4471,86.2068 149.4221,86.2068 C148.4421,86.2068 147.5781,85.3188 147.5781,84.3158 C147.5781,83.3818 148.4421,82.5158 149.4221,82.5158 C150.4021,82.5158 151.2661,83.3588 151.2661,84.3158 L151.2661,84.3158 Z" id="Fill-55" fill="#093A66"></path>
            <path d="M153.9434,90.4424 L153.2144,90.4424 C152.3264,90.4424 151.7794,89.8954 151.7794,89.0064 C151.7794,88.1874 152.3924,87.5714 153.2144,87.5714 L153.9434,87.5714 L153.9434,85.6134 C153.9434,84.5204 154.6264,83.7924 155.5834,83.7924 C156.5404,83.7924 157.2224,84.5204 157.2224,85.6134 L157.2224,87.5714 L158.1574,87.5714 C158.9994,87.5714 159.7274,87.9594 159.7274,89.0064 C159.7274,90.0334 158.9994,90.4424 158.1574,90.4424 L157.2224,90.4424 L157.2224,98.0044 C157.2224,99.0984 156.5404,99.8274 155.5834,99.8274 C154.6264,99.8274 153.9434,99.0984 153.9434,98.0044 L153.9434,90.4424 Z" id="Fill-57" fill="#093A66"></path>
            <path d="M163.7168,93.6533 C163.7168,95.2253 164.5368,96.9563 166.3138,96.9563 C168.0908,96.9563 168.9098,95.2253 168.9098,93.6533 C168.9098,92.0823 168.1138,90.3053 166.3138,90.3053 C164.5148,90.3053 163.7168,92.0823 163.7168,93.6533 M172.1918,93.6533 C172.1918,97.0713 169.8448,99.9633 166.3138,99.9633 C162.7838,99.9633 160.4388,97.0713 160.4388,93.6533 C160.4388,90.3283 162.8528,87.2993 166.3138,87.2993 C169.7768,87.2993 172.1918,90.3283 172.1918,93.6533" id="Fill-59" fill="#093A66"></path>
            <path d="M180.125,96.9561 C181.833,96.9561 182.675,95.1801 182.675,93.6531 C182.675,92.1041 181.833,90.3061 180.125,90.3061 C178.37,90.3061 177.551,91.9451 177.551,93.5401 C177.551,95.1351 178.324,96.9561 180.125,96.9561 L180.125,96.9561 Z M174.27,83.9741 C174.27,82.8801 174.954,82.1501 175.911,82.1501 C176.866,82.1501 177.551,82.8801 177.551,83.9741 L177.551,88.4371 C178.415,87.6861 179.531,87.2991 180.67,87.2991 C184.201,87.2991 185.956,90.6021 185.956,93.7901 C185.956,96.8881 183.86,99.9631 180.558,99.9631 C179.44,99.9631 178.165,99.4621 177.551,98.4601 C177.345,99.3261 176.822,99.8271 175.911,99.8271 C174.954,99.8271 174.27,99.0991 174.27,98.0041 L174.27,83.9741 Z" id="Fill-61" fill="#093A66"></path>
            <path d="M193.4316,96.9561 C195.1416,96.9561 195.9616,95.2261 195.9616,93.6531 C195.9616,92.0821 195.1636,90.3061 193.4316,90.3061 C191.6326,90.3061 190.8356,92.0821 190.8356,93.6531 C190.8356,95.2261 191.6556,96.9561 193.4316,96.9561 L193.4316,96.9561 Z M199.2406,97.6851 C199.2406,98.5291 199.2406,99.8271 197.6696,99.8271 C196.7126,99.8271 196.3256,99.3021 196.0966,98.4371 C195.2546,99.4391 194.2296,99.9631 192.9776,99.9631 C189.9026,99.9631 187.5566,97.3441 187.5566,93.6531 C187.5566,90.0551 189.9716,87.2991 192.9776,87.2991 C194.1846,87.2991 195.3686,87.7771 196.0966,88.8031 C196.1876,88.0061 196.8716,87.4361 197.6696,87.4361 C199.2406,87.4361 199.2406,88.7341 199.2406,89.5761 L199.2406,97.6851 Z" id="Fill-63" fill="#093A66"></path>
            <path d="M107.1904,38.4141 L107.1904,27.6171 L92.1594,40.6171 L92.1594,51.3141 C92.1594,51.3501 92.1554,51.3841 92.1544,51.4201 L107.1904,38.4141 Z" id="Fill-65" fill="#86B3CC"></path>
            <path d="M119.4404,27.8184 L136.5124,13.0514 L136.5124,23.1514 L144.6784,16.0874 L144.6784,4.1214 C144.6784,2.5234 143.7474,1.0714 142.2944,0.4074 C140.8394,-0.2576 139.1324,-0.0126 137.9244,1.0324 L119.4404,17.0204 L119.4404,27.8184 Z" id="Fill-67" fill="#86B3CC"></path>
            <path d="M199.2402,4.1211 C199.2402,2.5231 198.3082,1.0721 196.8542,0.4071 C195.4012,-0.2569 193.6942,-0.0129 192.4852,1.0331 L144.6792,42.3831 L144.6792,32.2841 L136.5122,39.3481 L136.5122,51.3141 C136.5122,52.9121 137.4452,54.3631 138.8982,55.0271 C140.3512,55.6921 142.0582,55.4471 143.2672,54.4021 L191.0732,13.0521 L191.0742,51.3141 C191.0742,53.5691 192.9022,55.3971 195.1572,55.3971 C197.4122,55.3971 199.2402,53.5691 199.2402,51.3141 L199.2402,4.1211 Z" id="Fill-69" fill="#86B3CC"></path>
            <path d="M4.1948,55.3975 C3.0498,55.3975 1.9118,54.9185 1.1048,53.9855 C-0.3702,52.2795 -0.1842,49.7015 1.5218,48.2255 L56.0828,1.0325 C57.2908,-0.0125 58.9988,-0.2575 60.4518,0.4075 C61.9048,1.0715 62.8378,2.5225 62.8378,4.1215 L62.8378,51.3145 C62.8378,53.5695 61.0088,55.3975 58.7538,55.3975 C56.4988,55.3975 54.6708,53.5695 54.6708,51.3145 L54.6708,13.0515 L6.8638,54.4025 C6.0918,55.0705 5.1408,55.3975 4.1948,55.3975" id="Fill-71" fill="#093A66"></path>
            <path d="M90.1177,4.1211 C90.1177,2.5231 89.1857,1.0721 87.7327,0.4071 C86.2787,-0.2569 84.5717,-0.0129 83.3637,1.0331 L64.8787,17.0201 L64.8787,27.8181 L81.9507,13.0521 L81.9517,51.3141 C81.9517,53.5691 83.7797,55.3971 86.0347,55.3971 C88.2897,55.3971 90.1177,53.5691 90.1177,51.3141 L90.1177,4.1211 Z" id="Fill-73" fill="#CA542A"></path>
            <path d="M52.6289,27.6167 L28.8019,48.2257 C27.0969,49.7007 26.9099,52.2797 28.3849,53.9857 C29.1929,54.9187 30.3309,55.3977 31.4759,55.3977 C32.4219,55.3977 33.3729,55.0707 34.1449,54.4027 L52.6289,38.4137 L52.6289,27.6167 Z" id="Fill-75" fill="#CA542A"></path>
            <path d="M79.9097,38.4141 L79.9097,27.6171 L64.8787,40.6171 L64.8787,51.3141 C64.8787,51.3501 64.8747,51.3841 64.8737,51.4201 L79.9097,38.4141 Z" id="Fill-77" fill="#BFBF88"></path>
            <path d="M170.9648,1.4497 C169.4888,-0.2563 166.9108,-0.4423 165.2048,1.0327 L117.3988,42.3837 L117.3988,4.1207 C117.3988,2.5227 116.4668,1.0717 115.0128,0.4077 C113.5598,-0.2573 111.8528,-0.0123 110.6438,1.0327 L92.1598,17.0207 L92.1598,27.8187 L109.2318,13.0517 L109.2328,51.3147 C109.2328,52.9117 110.1638,54.3637 111.6168,55.0277 C113.0698,55.6927 114.7778,55.4477 115.9858,54.4027 L170.5478,7.2097 C172.2528,5.7337 172.4408,3.1557 170.9648,1.4497" id="Fill-79" fill="#BFBF88"></path>
        </g>
    </g>
</svg>