<svg id="Layer_1" data-name="Layer 1" xmlns="http://www.w3.org/2000/svg" viewBox="0 0 929.74 458.33"><defs><style>.cls-1{fill:#1d1d1b;}</style></defs><title>Arcade-logotype-black</title><polygon class="cls-1" points="403.47 387.63 405.96 276.61 301.53 314.38 334.47 271.12 -0.5 271.12 -0.5 117.17 332.6 117.17 300.28 75.63 405.1 112.31 401.44 1.32 468.01 97.4 461.43 101.95 410.33 28.2 413.48 123.71 323.27 92.15 348.96 125.17 7.5 125.17 7.5 263.12 350.62 263.12 324.35 297.63 414.22 265.12 412.07 360.66 462.14 286.76 468.76 291.25 403.47 387.63"/><polygon class="cls-1" points="528.73 460 462.16 363.93 468.74 359.37 519.84 433.13 516.69 337.61 606.9 369.17 581.21 336.15 922.24 336.15 922.24 198.2 579.55 198.2 605.82 163.7 515.95 196.21 518.1 100.66 468.03 174.56 461.41 170.08 526.7 73.69 524.21 184.71 628.64 146.94 595.7 190.2 930.24 190.2 930.24 344.15 597.57 344.15 629.89 385.69 525.07 349.02 528.73 460"/><path class="cls-1" d="M90.41,229.68H80.52l-4.76-15H48.88l-4.66,15h-9.9l23.1-70.36h9.9ZM51.6,206H73L62.37,171.65Z"/><path class="cls-1" d="M126.61,200c-1.65.1-3.3.1-5.14.1h-8v29.6h-9.22V159.32h17.18c15.33,0,27.17,3.3,27.17,20.09,0,11-4.95,16.4-12.71,18.83l14.94,31.44H140.39Zm-13.1-31.92v23.29h9c9.32,0,16.6-.88,16.6-11.75s-7.28-11.54-16.6-11.54Z"/><path class="cls-1" d="M212.49,207.84c-2.42,15.24-11.55,23.1-24.45,23.1-17.08,0-25.23-15.23-25.23-36.58,0-21.84,9.12-36.39,25.91-36.39,12.13,0,21.25,9.41,23.58,23.67h-9.42c-1.26-8-5.53-15-14.45-15-10.19,0-16.11,9.51-16.11,27.76,0,17.37,5.43,28,16.3,28,8.93,0,13.39-6,14.65-14.56Z"/><path class="cls-1" d="M278.48,229.68h-9.9l-4.75-15H236.94l-4.65,15h-9.9l23.09-70.36h9.9ZM239.66,206h21.45l-10.68-34.35Z"/><path class="cls-1" d="M302.93,159.32c20,0,36.1,8.25,36.1,35.13s-16.11,35.23-36.1,35.23h-12V159.32Zm-.29,8.74h-2.52v52.88h2.52c13.1,0,27-2.62,27-26.49C329.62,170.39,315.74,168.06,302.64,168.06Z"/><path class="cls-1" d="M355.33,159.32h41.93v8.74H364.55v21h30.77v8.73H364.55v23.19h32.71v8.74H355.33Z"/><path class="cls-1" d="M579,280.57c-2.43,15.23-11.55,23.1-24.45,23.1-17.08,0-25.24-15.24-25.24-36.59,0-21.83,9.13-36.39,25.92-36.39,12.12,0,21.25,9.41,23.58,23.68h-9.42c-1.26-8.06-5.53-15-14.46-15-10.19,0-16.1,9.51-16.1,27.75,0,17.37,5.43,28.05,16.3,28.05,8.93,0,13.39-6,14.65-14.56Z"/><path class="cls-1" d="M645,302.4h-9.9l-4.75-15H603.44l-4.65,15h-9.9L612,232.05h9.9Zm-38.82-23.67h21.45l-10.68-34.36Z"/><path class="cls-1" d="M675,278.14l-10.28-37.07V302.4h-9.22V232.05h14.46l9.7,36,9.71-36h14.45V302.4h-9.21V241.07l-10.29,37.07Z"/><path class="cls-1" d="M740,232.05c15.43,0,27.27,4.17,27.27,21.64S755.41,275.33,740,275.33h-8.05V302.4h-9.22V232.05Zm-8.05,8.73V266.6h9.22c9.41,0,16.59-1.46,16.59-12.91s-7.18-12.91-16.59-12.91Z"/><path class="cls-1" d="M786.27,232.05h43.28v8.73H795.49v21h32.22v8.74H795.49V302.4h-9.22Z"/><path class="cls-1" d="M895.73,302.4h-9.9l-4.75-15H854.2l-4.66,15h-9.9l23.1-70.35h9.9Zm-38.81-23.67h21.44l-10.67-34.36Z"/></svg>