<svg id="Layer_1" data-name="Layer 1" xmlns="http://www.w3.org/2000/svg" xmlns:xlink="http://www.w3.org/1999/xlink" width="320" height="175.32" viewBox="0 0 320 175.32">
  <defs>
    <style>
      .cls-1 {
        fill: none;
      }

      .cls-2 {
        clip-path: url(#clip-path);
      }

      .cls-3 {
        fill: #d25e25;
      }

      .cls-4 {
        fill: #2e3192;
      }
    </style>
    <clipPath id="clip-path" transform="translate(-0.5 -0.05)">
      <rect class="cls-1" x="0.5" y="0.05" width="320" height="175.32"/>
    </clipPath>
  </defs>
  <g class="cls-2">
    <path class="cls-3" d="M233.11,110.78c-2.43,0-3.91-1.07-3.91-2.61,0-4,5.33-3.08,9.36-5,.3,4.26-1.12,7.64-5.45,7.64m19.44,6.1v-.6c-1.6-1.3-1.66-2.19-1.66-4V97.81c0-7.4-.89-12.85-15.59-12.85-12.26,0-16.94,3.85-16.94,10.42h11.85c.3-2.67,2.61-3,4.32-3,1.31,0,4,.29,4,2.55,0,5.8-22.1-.6-22.1,13.5,0,6.45,5.22,9.35,11.08,9.35,4.63,0,8.18-.94,11.68-4.2l.59,3.32Zm-70.27-15.16c0,10.6,7.7,16,17.65,16s17.66-5.32,17.66-16.7c0-9.65-6.75-16.1-17.71-16.1-10.49,0-17.6,6-17.6,16.76m17.77-8.47c3.2-.18,5.22,3.26,5.22,7.81,0,5.87-2,8.41-5.34,8.41-3.14,0-5.33-2.54-5.33-8.41,0-3.49,1.25-7.81,5.45-7.81m-37.27,23.63H175.1V106.16c0-6.69,2.55-9.06,7.58-9.06a18.6,18.6,0,0,1,2.55.35V85.13c-.53,0-1.07-.17-1.6-.17-4.8,0-7.82,2.31-9.54,7.16H174V85.85h-11.2Zm-19.73-6.1c-2.43,0-3.91-1.07-3.91-2.61,0-4,5.33-3.08,9.36-5,.29,4.26-1.13,7.64-5.45,7.64m19.43,6.1v-.6c-1.6-1.3-1.66-2.19-1.66-4V97.81c0-7.4-.89-12.85-15.58-12.85-12.26,0-17,3.85-17,10.42h11.85c.3-2.67,2.61-3,4.33-3,1.3,0,4,.29,4,2.55,0,5.8-22.1-.6-22.1,13.5,0,6.45,5.21,9.35,11.08,9.35,4.62,0,8.17-.94,11.67-4.2l.59,3.32Zm-34.66-12.74C128,92.89,121.07,85,109.57,85,99.62,85,92,91.47,92,101.66c0,10.42,7.7,16.1,17.65,16.1,7.23,0,15.05-2.54,17.18-10.24H115a4.89,4.89,0,0,1-4.62,2.72,6,6,0,0,1-6.1-6.1ZM104.3,97.87c0-3.32,2.07-5.39,5.75-5.39a5.59,5.59,0,0,1,5.45,5.39ZM91.92,108.05H90c-3.43,0-3.85-1-3.85-3.85V93H92v-7.1H86.11V76.19H74v9.66H69.4V93h4.39v13c0,10.72,1.95,11.84,18.13,11Zm-56-6.33c0,10.6,7.7,16,17.66,16s17.65-5.32,17.65-16.7c0-9.65-6.75-16.1-17.71-16.1-10.49,0-17.6,6-17.6,16.76m17.77-8.47c3.2-.18,5.22,3.26,5.22,7.81,0,5.87-2,8.41-5.33,8.41-3.14,0-5.34-2.54-5.34-8.41,0-3.49,1.25-7.81,5.45-7.81M17.15,110.78c-2.43,0-3.91-1.07-3.91-2.61,0-4,5.33-3.08,9.36-5,.3,4.26-1.13,7.64-5.45,7.64m19.43,6.1v-.6c-1.6-1.3-1.66-2.19-1.66-4V97.81C34.92,90.41,34,85,19.34,85,7.08,85,2.4,88.81,2.4,95.38H14.25c.29-2.67,2.6-3,4.32-3,1.3,0,4,.29,4,2.55,0,5.8-22.1-.6-22.1,13.5,0,6.45,5.21,9.35,11.08,9.35,4.62,0,8.18-.94,11.67-4.2l.59,3.32Z" transform="translate(-0.5 -0.05)"/>
    <path class="cls-3" d="M171.55,67.74c.65,8.35,8.47,10.55,15.58,10.55,11.37,0,16.71-4.39,16.71-10.84,0-11.61-19.62-8.71-19.62-13,0-1.54,1.37-2.19,3.5-2.19a3.91,3.91,0,0,1,2.49.77,3.19,3.19,0,0,1,1.18,2.25h11.2c-.71-8.23-8.65-9.77-15.4-9.77-6.46,0-14.7,2.31-14.7,10.24,0,12,19,8.06,19,13,0,2.19-2,2.78-3.91,2.78a5,5,0,0,1-3-.94,3.44,3.44,0,0,1-1.3-2.85Zm-31.46,0c.65,8.35,8.47,10.55,15.58,10.55,11.37,0,16.71-4.39,16.71-10.84,0-11.61-19.62-8.71-19.62-13,0-1.54,1.37-2.19,3.5-2.19a3.91,3.91,0,0,1,2.49.77,3.23,3.23,0,0,1,1.18,2.25h11.2c-.71-8.23-8.65-9.77-15.4-9.77-6.46,0-14.7,2.31-14.7,10.24,0,12,19,8.06,19,13,0,2.19-2,2.78-3.91,2.78a5,5,0,0,1-3-.94,3.44,3.44,0,0,1-1.3-2.85Zm.94-3.08c.18-11.25-6.75-19.18-18.25-19.18-10,0-17.59,6.51-17.59,16.7,0,10.42,7.7,16.11,17.65,16.11,7.23,0,15-2.55,17.19-10.25H128.24a4.91,4.91,0,0,1-4.62,2.72,6,6,0,0,1-6.11-6.1Zm-23.52-6.27c0-3.32,2.08-5.39,5.75-5.39a5.59,5.59,0,0,1,5.45,5.39Zm-12.32-.18c-.89-9.18-8.71-12.73-17-12.73-10.26,0-17.72,6.1-17.72,16.7s7.7,16.11,17.72,16.11c8.59,0,16.17-3.5,17.24-12.91H93C92.63,67.8,91.38,70,88.19,70c-3.62,0-5.4-3.08-5.4-7.76,0-3.67.77-8.47,5.4-8.47A4.11,4.11,0,0,1,91.38,55a4.63,4.63,0,0,1,1.31,3.2Zm-34.78,0c-.89-9.18-8.71-12.73-17-12.73-10.25,0-17.72,6.1-17.72,16.7S43.4,78.29,53.41,78.29c8.59,0,16.17-3.5,17.24-12.91H58.21c-.36,2.42-1.6,4.62-4.8,4.62C49.79,70,48,66.92,48,62.24c0-3.67.77-8.47,5.39-8.47A4.15,4.15,0,0,1,56.61,55a4.67,4.67,0,0,1,1.3,3.2ZM17.15,71.3c-2.43,0-3.91-1.07-3.91-2.61,0-4,5.33-3.08,9.36-5,.3,4.26-1.13,7.64-5.45,7.64m19.43,6.1v-.6c-1.6-1.3-1.66-2.19-1.66-4V58.33c0-7.4-.89-12.85-15.58-12.85C7.08,45.48,2.4,49.33,2.4,55.9H14.25c.29-2.67,2.6-3,4.32-3,1.3,0,4,.3,4,2.55,0,5.8-22.1-.6-22.1,13.5,0,6.45,5.21,9.36,11.08,9.36,4.62,0,8.18-1,11.67-4.21l.59,3.32Z" transform="translate(-0.5 -0.05)"/>
    <path class="cls-3" d="M79.94,31.08c.65,8.35,8.47,10.55,15.58,10.55,11.38,0,16.71-4.39,16.71-10.84,0-11.61-19.61-8.71-19.61-13,0-1.54,1.36-2.19,3.49-2.19a3.91,3.91,0,0,1,2.49.77,3.24,3.24,0,0,1,1.19,2.25H111c-.71-8.23-8.65-9.77-15.4-9.77-6.46,0-14.69,2.31-14.69,10.24,0,12,19,8.06,19,13,0,2.19-2,2.78-3.92,2.78a5,5,0,0,1-3-.94,3.44,3.44,0,0,1-1.3-2.85Zm-.18.83h-2c-3.44,0-3.85-1-3.85-3.85V16.81h5.92V9.71H74V.05H61.81V9.71H57.25v7.1h4.38v13c0,10.72,2,11.85,18.13,11ZM36.88,40.74H49.2V30c0-6.69,2.55-9.06,7.59-9.06a18.67,18.67,0,0,1,2.54.35V9c-.53-.05-1.06-.17-1.6-.17-4.8,0-7.82,2.31-9.54,7.16h-.12V9.71H36.88Zm-19.73-6.1c-2.43,0-3.91-1.07-3.91-2.61,0-4,5.33-3.08,9.36-5,.3,4.26-1.13,7.64-5.45,7.64m19.43,6.1v-.6c-1.6-1.3-1.66-2.19-1.66-4V21.67c0-7.4-.89-12.85-15.58-12.85C7.08,8.82,2.4,12.67,2.4,19.24H14.25c.29-2.66,2.6-3,4.32-3,1.3,0,4,.3,4,2.55,0,5.8-22.1-.6-22.1,13.5,0,6.45,5.21,9.36,11.08,9.36,4.62,0,8.18-1,11.67-4.21l.59,3.32Z" transform="translate(-0.5 -0.05)"/>
    <path class="cls-3" d="M311.56,143.3c-1.06,0-1.71-.47-1.71-1.15,0-1.76,2.33-1.35,4.1-2.2.13,1.87-.49,3.35-2.39,3.35m8.51,2.66v-.25a1.76,1.76,0,0,1-.72-1.74v-6.36c0-3.24-.39-5.63-6.83-5.63-5.37,0-7.42,1.68-7.42,4.56h5.19c.13-1.16,1.14-1.32,1.89-1.32.58,0,1.77.13,1.77,1.12,0,2.54-9.68-.26-9.68,5.92,0,2.82,2.28,4.09,4.85,4.09a6.79,6.79,0,0,0,5.11-1.84l.26,1.46Zm-32-6.64c0,4.65,3.37,7,7.73,7s7.74-2.33,7.74-7.31c0-4.23-3-7.06-7.76-7.06-4.6,0-7.71,2.62-7.71,7.34m7.79-3.71c1.4-.08,2.28,1.43,2.28,3.43,0,2.57-.88,3.68-2.34,3.68s-2.33-1.11-2.33-3.68c0-1.53.54-3.43,2.39-3.43M278.36,146h5.4v-4.69c0-2.92,1.11-4,3.32-4a8.88,8.88,0,0,1,1.12.16v-5.4a5.78,5.78,0,0,0-.7-.08c-2.11,0-3.43,1-4.18,3.13h-.05v-2.75h-4.91Zm-9.83-2.66c-1.07,0-1.72-.47-1.72-1.15,0-1.76,2.34-1.35,4.11-2.2.12,1.87-.5,3.35-2.39,3.35M277,146v-.25a1.77,1.77,0,0,1-.73-1.74v-6.36c0-3.24-.39-5.63-6.82-5.63-5.38,0-7.43,1.68-7.43,4.56h5.19c.13-1.16,1.15-1.32,1.9-1.32.57,0,1.77.13,1.77,1.12,0,2.54-9.69-.26-9.69,5.92,0,2.82,2.29,4.09,4.85,4.09a6.8,6.8,0,0,0,5.12-1.84l.26,1.46Zm-16.38-5.57c.08-4.94-3-8.41-8-8.41-4.36,0-7.71,2.85-7.71,7.31s3.37,7.06,7.73,7.06c3.17,0,6.59-1.11,7.53-4.48h-5.17a2.15,2.15,0,0,1-2,1.19,2.61,2.61,0,0,1-2.67-2.67Zm-10.3-2.75a2.24,2.24,0,0,1,2.51-2.37,2.45,2.45,0,0,1,2.39,2.37Zm-6.62,4.46h-.86c-1.5,0-1.68-.44-1.68-1.69v-4.93h2.59v-3.11H241.2v-4.23h-5.32v4.23h-2v3.11h1.92v5.69c0,4.69.86,5.18,7.94,4.79ZM218,139.32c0,4.65,3.37,7,7.73,7s7.73-2.33,7.73-7.31c0-4.23-3-7.06-7.76-7.06-4.59,0-7.7,2.62-7.7,7.34m7.78-3.71c1.4-.08,2.29,1.43,2.29,3.43,0,2.57-.89,3.68-2.34,3.68s-2.34-1.11-2.34-3.68c0-1.53.55-3.43,2.39-3.43M204.06,146l.7-2.46h6.1l.72,2.46h6.1L211,127.28h-6.23L198.06,146Zm5.73-6.35h-3.86l1.89-6.7Zm-25.92-9h5.39v-3.84h-5.39Zm5.39,1.74h-5.39V146h5.39Zm-15.65,8.77,2.91,4.82H183l-5.69-8.33,5-5.26h-6.31l-3.45,4.15v-9.24h-5.4V146h5.4v-3.81Zm-21.69-10.51h5.39v-3.84h-5.39Zm5.39,1.74h-5.39V146h5.39Zm-22.52,6.95c0,4.65,3.37,7,7.73,7s7.73-2.33,7.73-7.31c0-4.23-2.95-7.06-7.75-7.06-4.6,0-7.71,2.62-7.71,7.34m7.78-3.71c1.41-.08,2.29,1.43,2.29,3.43,0,2.57-.88,3.68-2.34,3.68s-2.34-1.11-2.34-3.68c0-1.53.55-3.43,2.39-3.43m-22.86-3.43h5.5V146h6.12V132.18h5.5v-4.9H119.71ZM102.65,143.3c-1.06,0-1.71-.47-1.71-1.15,0-1.76,2.34-1.35,4.1-2.2.13,1.87-.49,3.35-2.39,3.35m8.52,2.66v-.25a1.75,1.75,0,0,1-.73-1.74v-6.36c0-3.24-.39-5.63-6.83-5.63-5.37,0-7.42,1.68-7.42,4.56h5.19c.13-1.16,1.14-1.32,1.9-1.32.57,0,1.76.13,1.76,1.12,0,2.54-9.68-.26-9.68,5.92,0,2.82,2.28,4.09,4.85,4.09a6.81,6.81,0,0,0,5.12-1.84l.25,1.46Zm-31.3.71c.26,2,2.28,3.91,7.08,3.91,6.7,0,7.16-3.19,7.16-7.26V132.37H89.37v1.79A5.19,5.19,0,0,0,85.24,132c-4.47,0-6.07,3.55-6.07,6.9s2.15,6.44,5.91,6.44a5.18,5.18,0,0,0,3.9-1.48V145c0,2-.62,2.65-2.18,2.65a1.78,1.78,0,0,1-1.17-.33.89.89,0,0,1-.34-.6Zm6.82-10.83c1.72,0,2.29,1.43,2.29,2.94s-.62,2.88-2.29,2.8c-1.45,0-2.13-1.3-2.13-2.65,0-1.76.5-3.11,2.13-3.09M63.1,146h5.4V139c0-1.74.44-2.81,2.1-2.81s1.9,1.2,1.9,2.55V146h5.39v-8.14c0-3.74-1.68-5.84-5.26-5.84A5.32,5.32,0,0,0,68,134.5v-2.13H63.1Zm-9.73-2.66c-1.07,0-1.72-.47-1.72-1.15,0-1.76,2.34-1.35,4.11-2.2.13,1.87-.5,3.35-2.39,3.35M61.88,146v-.25a1.77,1.77,0,0,1-.73-1.74v-6.36c0-3.24-.39-5.63-6.82-5.63-5.37,0-7.42,1.68-7.42,4.56h5.18c.14-1.16,1.15-1.32,1.9-1.32.57,0,1.77.13,1.77,1.12,0,2.54-9.68-.26-9.68,5.92,0,2.82,2.28,4.09,4.85,4.09A6.79,6.79,0,0,0,56,144.51L56.3,146ZM45,142.1h-.86c-1.5,0-1.68-.44-1.68-1.69v-4.93h2.59v-3.11H42.47v-4.23H37.15v4.23h-2v3.11h1.92v5.69c0,4.69.86,5.18,7.94,4.79Zm-10.62-9.73H29v6.54c0,2.1-.49,3.27-2.05,3.27-1.3,0-1.95-.6-1.95-2.47v-7.34H19.6v8.28c0,3.89,1.92,5.7,4.88,5.7A5.18,5.18,0,0,0,29.39,144v2h5ZM8.1,146v-5.81h3.1c5.37,0,7.75-2.54,7.75-6.56,0-3.84-2.59-6.31-8-6.31H2V146Zm0-10.17v-4.15H9.84c1.3,0,3.28.23,3.28,2s-1,2.18-2.47,2.18Z" transform="translate(-0.5 -0.05)"/>
    <path class="cls-4" d="M320.21,164c-.11-2.75-2.92-3.39-5.26-3.39-2.17,0-5.12.7-5.12,3.41,0,1.84,1.28,2.83,4.43,3.37,1.92.33,2.27.51,2.27,1.13s-.85.83-1.4.83a1.68,1.68,0,0,1-1.1-.31,1.32,1.32,0,0,1-.5-.95h-3.95c.07,2.77,2.86,3.78,5.41,3.78s5.51-.8,5.51-3.78c0-1.76-1.21-2.56-2.59-3s-2.94-.53-3.63-.82c-.23-.11-.48-.25-.48-.56,0-.71.67-.83,1.25-.83a1.48,1.48,0,0,1,.92.31,1.05,1.05,0,0,1,.48.81Zm-14-6.39h-4.13v3.27h-1.84v2.52h1.84v5.12c0,2.94,1.94,3.21,3.69,3.21.88,0,1.82-.13,2.66-.13v-3.1a6,6,0,0,1-.94.06c-1,0-1.28-.43-1.28-1.42v-3.74h2.22v-2.52h-2.22Zm-14.65,14h4.13V167.4c0-2.3.88-3.25,2.51-3.25a4.15,4.15,0,0,1,1.63.27V160.8a5,5,0,0,0-1.21-.16,3.16,3.16,0,0,0-3,2h0v-1.71h-4Zm-2.61-6.8c0-2.06,0-4.19-5.13-4.19-2.57,0-5.45.49-5.58,3.51h3.84c0-.45.27-1.09,1.55-1.09.67,0,1.35.27,1.35,1s-.56.85-1.12.95c-2.11.39-6.12.27-6.12,3.66,0,2.25,1.73,3.24,3.82,3.24a4.44,4.44,0,0,0,3.49-1.28h0a2.94,2.94,0,0,0,.14,1h4.22a4.27,4.27,0,0,1-.5-2.39Zm-4,3a1.62,1.62,0,0,1-1.73,1.67,1.18,1.18,0,0,1-1.29-1c0-.72.48-1,1.4-1.15a7.3,7.3,0,0,0,1.62-.52Zm-14.38-.62c0-4.17-1.86-6.55-6.16-6.55a5.53,5.53,0,0,0-5.72,5.66c0,3.58,2.61,5.6,6.08,5.6,2.46,0,4.74-1.07,5.57-3.39h-3.86a2.09,2.09,0,0,1-1.73.77,2,2,0,0,1-2.11-2.09Zm-7.91-2.13a2,2,0,0,1,2.13-1.8,1.77,1.77,0,0,1,1.81,1.8Zm-17.45,6.57h4.13V166c0-1.71.94-2.07,1.65-2.07,1.21,0,1.36.87,1.36,2.11v5.62h4.13v-7.36a3.47,3.47,0,0,0-3.72-3.63,4,4,0,0,0-3.38,1.42h0v-5.18h-4.13Zm-4-14h-4.13v3.27h-1.84v2.52h1.84v5.12c0,2.94,1.94,3.21,3.69,3.21.88,0,1.82-.13,2.65-.13v-3.1a5.86,5.86,0,0,1-.94.06c-1,0-1.27-.43-1.27-1.42v-3.74h2.21v-2.52h-2.21Zm-16.95,8.62c0,1.14-.21,2.67-1.78,2.67s-1.77-1.53-1.77-2.67.21-2.65,1.77-2.65,1.78,1.51,1.78,2.65m4.13,0c0-3-1.84-5.62-5.91-5.62s-5.9,2.64-5.9,5.62,1.83,5.64,5.9,5.64,5.91-2.66,5.91-5.64m-15.3-8.62h-4.13v3.27h-1.84v2.52h1.84v5.12c0,2.94,1.94,3.21,3.69,3.21.88,0,1.82-.13,2.65-.13v-3.1a5.81,5.81,0,0,1-.93.06c-1,0-1.28-.43-1.28-1.42v-3.74h2.21v-2.52H213.2Zm-13,6.39c-.1-2.75-2.92-3.39-5.25-3.39s-5.12.7-5.12,3.41c0,1.84,1.27,2.83,4.43,3.37,1.92.33,2.27.51,2.27,1.13s-.85.83-1.4.83a1.68,1.68,0,0,1-1.1-.31,1.29,1.29,0,0,1-.5-.95h-3.95c.06,2.77,2.86,3.78,5.41,3.78s5.51-.8,5.51-3.78c0-1.76-1.21-2.56-2.59-3s-2.94-.53-3.63-.82c-.23-.11-.48-.25-.48-.56,0-.71.66-.83,1.25-.83a1.5,1.5,0,0,1,.92.31,1.05,1.05,0,0,1,.48.81Zm-12.39,0c-.11-2.75-2.93-3.39-5.26-3.39s-5.12.7-5.12,3.41c0,1.84,1.28,2.83,4.43,3.37,1.92.33,2.27.51,2.27,1.13s-.85.83-1.4.83a1.68,1.68,0,0,1-1.1-.31,1.29,1.29,0,0,1-.5-.95h-3.95c.06,2.77,2.86,3.78,5.41,3.78s5.51-.8,5.51-3.78c0-1.76-1.21-2.56-2.59-3s-2.94-.53-3.63-.82c-.23-.11-.48-.25-.48-.56,0-.71.67-.83,1.25-.83a1.48,1.48,0,0,1,.92.31,1.05,1.05,0,0,1,.48.81Zm-12.17,3.16c0-4.17-1.86-6.55-6.16-6.55a5.53,5.53,0,0,0-5.72,5.66c0,3.58,2.61,5.6,6.07,5.6,2.47,0,4.74-1.07,5.58-3.39h-3.86a2.09,2.09,0,0,1-1.74.77,2,2,0,0,1-2.1-2.09Zm-7.91-2.13a1.94,1.94,0,0,1,2.12-1.8,1.77,1.77,0,0,1,1.82,1.8ZM162,165c-.25-3-2.67-4.34-5.51-4.34a5.63,5.63,0,1,0,0,11.26c2.93,0,5.24-1.63,5.64-4.55h-3.95a1.65,1.65,0,0,1-1.6,1.58c-1.59,0-1.82-1.35-1.82-2.65s.23-2.67,1.82-2.67a1.49,1.49,0,0,1,1,.36,1.42,1.42,0,0,1,.46,1Zm-13.17,0c-.25-3-2.67-4.34-5.51-4.34a5.63,5.63,0,1,0,0,11.26c2.92,0,5.24-1.63,5.64-4.55h-4a1.66,1.66,0,0,1-1.6,1.58c-1.59,0-1.82-1.35-1.82-2.65s.23-2.67,1.82-2.67a1.51,1.51,0,0,1,1,.36,1.42,1.42,0,0,1,.46,1Zm-13.52-.15c0-2.06,0-4.19-5.14-4.19-2.57,0-5.45.49-5.57,3.51h3.84c0-.45.27-1.09,1.54-1.09.67,0,1.36.27,1.36,1s-.56.85-1.13.95c-2.1.39-6.11.27-6.11,3.66,0,2.25,1.73,3.24,3.82,3.24a4.42,4.42,0,0,0,3.48-1.28h0a3,3,0,0,0,.15,1h4.22a4.27,4.27,0,0,1-.5-2.39Zm-4,3a1.62,1.62,0,0,1-1.73,1.67,1.19,1.19,0,0,1-1.3-1c0-.72.48-1,1.4-1.15a7.22,7.22,0,0,0,1.63-.52Zm-14.76-6.9h-4.13v1.3h0a2.89,2.89,0,0,0-2.83-1.57c-3.09,0-4.7,2.33-4.7,5.12s1.44,5.23,4.63,5.23a3.39,3.39,0,0,0,2.9-1.48h0v1c0,.89-.3,2.46-1.63,2.46a1.61,1.61,0,0,1-1.21-.79,2,2,0,0,1-.23-.37h-4.09c.37,2.89,3.09,3.58,5.65,3.58,5.08,0,5.64-3,5.64-5.13ZM109,165.74c0-1.13.59-2.13,1.76-2.13s1.79.93,1.79,2.11-.17,2.65-1.69,2.65S109,167,109,165.74m-17.41,5.89H95.7V166c0-1.71.94-2.07,1.65-2.07,1.21,0,1.35.87,1.35,2.11v5.62h4.13v-7.36a3.47,3.47,0,0,0-3.71-3.63,4,4,0,0,0-3.53,1.63h0v-1.36h-4Zm-2.77-14.75H84.65v2.87h4.14Zm-4.14,14.75h4.14V160.91H84.65ZM82.19,164c-.1-2.75-2.92-3.39-5.26-3.39-2.17,0-5.11.7-5.11,3.41,0,1.84,1.27,2.83,4.42,3.37,1.92.33,2.28.51,2.28,1.13s-.86.83-1.4.83a1.71,1.71,0,0,1-1.11-.31,1.32,1.32,0,0,1-.5-.95H71.57c.06,2.77,2.86,3.78,5.4,3.78s5.51-.8,5.51-3.78c0-1.76-1.21-2.56-2.58-3s-3-.53-3.64-.82c-.23-.11-.48-.25-.48-.56,0-.71.67-.83,1.25-.83a1.48,1.48,0,0,1,.92.31,1.05,1.05,0,0,1,.48.81Zm-12.63.8c0-2.06,0-4.19-5.13-4.19-2.57,0-5.45.49-5.58,3.51h3.84c0-.45.28-1.09,1.55-1.09.67,0,1.36.27,1.36,1s-.57.85-1.13.95c-2.11.39-6.12.27-6.12,3.66,0,2.25,1.74,3.24,3.82,3.24a4.44,4.44,0,0,0,3.49-1.28h0a2.73,2.73,0,0,0,.15,1h4.21a4.27,4.27,0,0,1-.5-2.39Zm-4,3a1.64,1.64,0,0,1-1.74,1.67,1.18,1.18,0,0,1-1.29-1c0-.72.48-1,1.4-1.15a7.39,7.39,0,0,0,1.63-.52Zm-8.75-.62c0-4.17-1.86-6.55-6.16-6.55A5.53,5.53,0,0,0,45,166.3c0,3.58,2.61,5.6,6.08,5.6,2.46,0,4.74-1.07,5.57-3.39H52.76a2.09,2.09,0,0,1-1.73.77,2,2,0,0,1-2.11-2.09Zm-7.91-2.13a2,2,0,0,1,2.13-1.8,1.77,1.77,0,0,1,1.81,1.8Zm-12.82,6.57h4.13V167.4c0-2.3.88-3.25,2.51-3.25a4.06,4.06,0,0,1,1.62.27V160.8a4.84,4.84,0,0,0-1.21-.16,3.16,3.16,0,0,0-3,2h0v-1.71h-4ZM33.86,165c-.24-3-2.67-4.34-5.51-4.34a5.63,5.63,0,1,0,0,11.26c2.93,0,5.24-1.63,5.64-4.55H30a1.65,1.65,0,0,1-1.6,1.58c-1.59,0-1.82-1.35-1.82-2.65s.23-2.67,1.82-2.67a1.49,1.49,0,0,1,1,.36,1.42,1.42,0,0,1,.46,1ZM9,171.63h4.14V166c0-1.71.94-2.07,1.65-2.07,1.21,0,1.35.87,1.35,2.11v5.62h4.14v-7.36a3.48,3.48,0,0,0-3.72-3.63A4,4,0,0,0,13,162.27h0v-1.36H9Zm-7.3,0H6.29V156.88H1.7Z" transform="translate(-0.5 -0.05)"/>
  </g>
</svg>
