<?xml version="1.0" encoding="utf-8"?>
<!-- Generator: Adobe Illustrator 27.5.0, SVG Export Plug-In . SVG Version: 6.00 Build 0)  -->
<svg version="1.1" id="Layer_1" xmlns="http://www.w3.org/2000/svg" xmlns:xlink="http://www.w3.org/1999/xlink" x="0px" y="0px"
	 viewBox="0 0 300 300" style="enable-background:new 0 0 300 300;" xml:space="preserve">
<style type="text/css">
	.st0{fill:#FCD502;}
</style>
<g id="Group_10">
	<path id="Path_5" class="st0" d="M273.91,118.12h-49.82l-37.46-62.33c-7.41-12.45-20.85-20.07-35.34-20.02h-0.06
		c-14.47-0.07-27.9,7.51-35.33,19.92L-0.68,253.34h55.55l96.41-163.47l20.81,34.63c-28.88,12.43-47.61,40.84-47.64,72.29
		c0.04,37.43,30.38,67.76,67.81,67.8c24.48,0.17,47.11-13.03,59.02-34.42c11.37-19.77,11.89-43.96,1.39-64.2H300L273.91,118.12z
		 M209.64,206.61c-3.49,6.32-10.16,10.21-17.38,10.13c-11.02-0.01-19.95-8.94-19.96-19.96c0.02-14.79,10.52-27.49,25.05-30.27
		l12.02,19.99C213.15,192.64,213.26,200.36,209.64,206.61L209.64,206.61z"/>
</g>
</svg>
