<svg version="1.0" xmlns="http://www.w3.org/2000/svg" width="880" height="880" viewBox="0 0 660 660" preserveAspectRatio="xMidYMid meet"><path d="M79 10.2c0 4.6-.1 30.1-.3 56.8l-.2 48.5-2.6 5.6c-3.8 8-10.2 11.9-20 12-10 .2-17.1-3.7-20.7-11.5-1.9-3.8-4-13.8-3.4-15.9.1-.4-7-.7-15.9-.7h-16l.5 5.2c.3 2.9 1 6.8 1.5 8.6.5 1.8 1 3.5.9 3.8-.1 1.2 2.8 7.2 5.6 11.9 8.8 14.4 23.8 22.3 43.7 22.9 14.7.5 26.3-2 35.9-7.6 4.5-2.7 13.1-11.5 15-15.3.8-1.7 2-3.7 2.6-4.5.7-.8 1.2-1.7 1.2-2 0-.3.5-2.5 1.2-5s1.4-5.4 1.5-6.5c.1-1.1.4-2 .5-2 .1 0 .3-25.3.4-56.3l.1-56.2H79v8.2zm435.5 68.3V155h15.7c15.7 0 15.8 0 15.8-2.3.1-1.2.1-16 .1-33L546 89h72l.1 2.7c0 1.6.1 16.4.1 33l.1 30.3H650V78.5L649.9 2h-31.6l-.1 29.7c0 16.4-.1 30.5-.1 31.3-.1 1.3-4.8 1.5-35.9 1.5h-35.7l-.2-28.5c-.1-15.7-.3-29.7-.3-31.3V2h-31.5v76.5zM573 499.6c-4.1.7-9.5 1.8-12 2.5s-4.7 1.3-5 1.4c-2.6.6-8 3.1-8 3.7 0 .4-.7.8-1.6.8-.9 0-4.5 2-7.9 4.5-19.2 13.7-30 37-29.9 64.5.1 6 1.4 21.2 1.9 22.1.2.3.6 1.6.9 3 .8 4.6 3.7 12.4 6.8 18.6 15.3 30.5 50.4 43.6 88.3 33 4.8-1.4 13.9-7 18.4-11.4 3-2.9 5.5-5.3 5.5-5.3.1 0 .2 1.7.2 3.8.1 2 .2 6 .3 8.8l.1 5.1h12.5c12.4 0 12.5-.1 12.6-2.4.4-12.8 0-77.3-.4-78-.4-.6-13.7-1-34.6-1-30.2 0-34 .2-34.3 1.6-.2.9-.3 6.3-.3 12.1v10.5l20.2.3 20.2.2-.5 5.8c-1.3 16.9-15 27.7-37 28.9-14.3.8-24.2-2.7-33.3-11.7-9.8-9.7-14.4-23-14.5-42.5 0-10.9.8-19.7 2.1-21.7.2-.5.7-2.1.9-3.5.6-3.1 5.6-12.7 8.2-15.8 4.9-5.8 13.8-11.3 21.1-13.2 3.7-.9 21-.9 25.1 0 10.3 2.3 21.2 10.8 24.7 19.3 1 2.4 2.5 4.4 3.3 4.4 3.2.1 23.6.1 26.2.1 2.6-.1 2.6-.2 1.6-3.9-1-3.9-5.8-15.3-6.8-16.2-.3-.3-1.8-2.2-3.3-4.3-5.7-7.5-13.6-13.8-23.2-18.1-12.9-6-32.7-8.4-48.5-6z" fill="#000"/></svg>