<?xml version="1.0" encoding="UTF-8"?>
<svg id="Layer_1" data-name="Layer 1" xmlns="http://www.w3.org/2000/svg" version="1.1" viewBox="0 0 271.8 20.1">
  <defs>
    <style>
      .cls-1 {
        fill: #231f20;
        stroke-width: 0px;
      }
    </style>
  </defs>
  <g>
    <path class="cls-1" d="M0,3.1V.4h11.7v2.6h-4.3v11.6h-3.1V3.1H0Z"/>
    <path class="cls-1" d="M15.5.4v5.4h0c.4-.6.8-1,1.4-1.3.6-.3,1.1-.4,1.6-.4.8,0,1.4.1,1.9.3.5.2.9.5,1.1.9.3.4.5.8.6,1.3.1.5.2,1.1.2,1.8v6.4h-2.8v-5.8c0-.9-.1-1.5-.4-1.9s-.7-.6-1.4-.6-1.3.2-1.7.7c-.3.5-.5,1.2-.5,2.3v5.4h-2.8V.4h2.8Z"/>
    <path class="cls-1" d="M26.9,12.2c.4.4,1,.6,1.8.6s1.1-.1,1.5-.4c.4-.3.7-.6.8-.9h2.5c-.4,1.2-1,2.1-1.8,2.7-.8.5-1.8.8-3,.8s-1.5-.1-2.2-.4-1.2-.6-1.7-1.1c-.5-.5-.8-1.1-1-1.7-.2-.7-.4-1.4-.4-2.2s.1-1.5.4-2.2c.3-.7.6-1.2,1.1-1.7s1-.9,1.7-1.2,1.4-.4,2.2-.4,1.6.2,2.3.5c.7.3,1.2.8,1.6,1.4s.7,1.2.9,2c.2.7.3,1.5.2,2.3h-7.5c0,.9.3,1.6.7,2ZM30.1,6.8c-.3-.4-.9-.6-1.5-.6s-.8,0-1.1.2c-.3.2-.5.3-.7.6-.2.2-.3.5-.4.7s-.1.5-.1.7h4.6c-.1-.7-.4-1.3-.7-1.6Z"/>
    <path class="cls-1" d="M43.2.4v5.9L48.8.4h3.9l-5.6,5.6,6.1,8.6h-3.9l-4.3-6.4-1.8,1.8v4.6h-3.1V.4h3.1Z"/>
    <path class="cls-1" d="M56.1,12.2c.4.4,1,.6,1.8.6s1.1-.1,1.5-.4c.4-.3.7-.6.8-.9h2.5c-.4,1.2-1,2.1-1.8,2.7-.8.5-1.8.8-3,.8s-1.5-.1-2.2-.4-1.2-.6-1.7-1.1c-.5-.5-.8-1.1-1-1.7-.2-.7-.4-1.4-.4-2.2s.1-1.5.4-2.2c.3-.7.6-1.2,1.1-1.7s1-.9,1.7-1.2,1.4-.4,2.2-.4,1.6.2,2.3.5c.7.3,1.2.8,1.6,1.4s.7,1.2.9,2c.2.7.3,1.5.2,2.3h-7.5c0,.9.3,1.6.7,2ZM59.3,6.8c-.3-.4-.9-.6-1.5-.6s-.8,0-1.1.2c-.3.2-.5.3-.7.6-.2.2-.3.5-.4.7s-.1.5-.1.7h4.6c-.1-.7-.4-1.3-.7-1.6Z"/>
    <path class="cls-1" d="M66.7,4.4v1.4h0c.4-.6.8-1,1.4-1.3s1.2-.4,1.8-.4,1.4.1,1.9.3c.5.2.9.5,1.1.9.3.4.5.8.6,1.3.1.5.2,1.1.2,1.8v6.4h-2.8v-5.8c0-.9-.1-1.5-.4-1.9s-.7-.6-1.4-.6-1.3.2-1.7.7c-.3.5-.5,1.2-.5,2.3v5.4h-2.8V4.4h2.7Z"/>
    <path class="cls-1" d="M77.9,4.4v1.4h0c.4-.6.8-1,1.4-1.3s1.2-.4,1.8-.4,1.4.1,1.9.3c.5.2.9.5,1.1.9.3.4.5.8.6,1.3.1.5.2,1.1.2,1.8v6.4h-2.8v-5.8c0-.9-.1-1.5-.4-1.9s-.7-.6-1.4-.6-1.3.2-1.7.7c-.3.5-.5,1.2-.5,2.3v5.4h-2.8V4.4h2.7Z"/>
    <path class="cls-1" d="M89.5,12.2c.4.4,1,.6,1.8.6s1.1-.1,1.5-.4c.4-.3.7-.6.8-.9h2.5c-.4,1.2-1,2.1-1.8,2.7-.8.5-1.8.8-3,.8s-1.5-.1-2.2-.4-1.2-.6-1.7-1.1c-.5-.5-.8-1.1-1-1.7-.2-.7-.4-1.4-.4-2.2s.1-1.5.4-2.2c.3-.7.6-1.2,1.1-1.7s1-.9,1.7-1.2,1.4-.4,2.2-.4,1.6.2,2.3.5c.7.3,1.2.8,1.6,1.4s.7,1.2.9,2c.2.7.3,1.5.2,2.3h-7.5c0,.9.3,1.6.7,2ZM92.7,6.8c-.3-.4-.9-.6-1.5-.6s-.8,0-1.1.2c-.3.2-.5.3-.7.6-.2.2-.3.5-.4.7s-.1.5-.1.7h4.6c-.1-.7-.4-1.3-.7-1.6Z"/>
    <path class="cls-1" d="M104.7,13.4c-.3.6-.8,1-1.3,1.2-.5.2-1.2.4-1.8.4s-1.5-.1-2-.5c-.6-.3-1.1-.7-1.5-1.2-.4-.5-.7-1.1-.9-1.8s-.3-1.4-.3-2.1,0-1.4.3-2c.2-.6.5-1.2.9-1.7.4-.5.9-.9,1.4-1.2s1.2-.5,2-.5,1.2.1,1.8.4c.6.3,1,.6,1.3,1.2h0V.4h2.8v14.3h-2.7v-1.3h0ZM104.6,8.3c0-.4-.2-.7-.4-1s-.4-.5-.8-.7c-.3-.2-.7-.3-1.2-.3s-.9,0-1.2.3c-.3.2-.6.4-.8.7-.2.3-.3.7-.4,1,0,.4-.1.8-.1,1.2s0,.8.1,1.2c0,.4.2.8.5,1.1.2.3.5.6.8.8.3.2.7.3,1.1.3s.9,0,1.2-.3c.3-.2.6-.4.8-.8.2-.3.3-.7.4-1.1s.1-.8.1-1.2,0-.8-.1-1.2Z"/>
    <path class="cls-1" d="M113,17.8c-.5.4-1.3.5-2.3.5s-.6,0-.9,0c-.3,0-.6,0-.9,0v-2.3c.3,0,.5,0,.8,0,.3,0,.6,0,.8,0,.4,0,.7-.2.8-.4s.3-.5.3-.8,0-.4-.1-.6l-3.6-9.7h3l2.3,7.1h0l2.3-7.1h2.9l-4.3,11.6c-.3.8-.7,1.4-1.3,1.8Z"/>
    <path class="cls-1" d="M133.4,4.2c-.2-.3-.4-.6-.7-.8s-.6-.4-1-.5-.7-.2-1.1-.2c-.7,0-1.3.1-1.8.4-.5.3-.9.6-1.2,1.1-.3.5-.5,1-.7,1.6-.1.6-.2,1.2-.2,1.8s0,1.2.2,1.8c.1.6.4,1.1.7,1.5.3.5.7.8,1.2,1.1s1.1.4,1.8.4,1.7-.3,2.2-.9.9-1.4,1-2.3h3c0,.9-.3,1.7-.6,2.4-.3.7-.8,1.3-1.3,1.8-.5.5-1.2.9-1.9,1.2-.7.3-1.5.4-2.4.4s-2.1-.2-3-.6c-.9-.4-1.6-.9-2.2-1.6-.6-.7-1.1-1.4-1.4-2.3-.3-.9-.5-1.9-.5-2.9s.2-2.1.5-3c.3-.9.8-1.7,1.4-2.4.6-.7,1.3-1.2,2.2-1.6.9-.4,1.9-.6,3-.6s1.5.1,2.2.3c.7.2,1.3.6,1.9,1,.6.4,1,1,1.4,1.6.4.6.6,1.4.7,2.2h-3c0-.4-.2-.7-.4-1Z"/>
    <path class="cls-1" d="M141.2,12.2c.4.4,1,.6,1.8.6s1.1-.1,1.5-.4c.4-.3.7-.6.8-.9h2.5c-.4,1.2-1,2.1-1.8,2.7-.8.5-1.8.8-3,.8s-1.5-.1-2.2-.4-1.2-.6-1.7-1.1c-.5-.5-.8-1.1-1-1.7-.2-.7-.4-1.4-.4-2.2s.1-1.5.4-2.2c.3-.7.6-1.2,1.1-1.7s1-.9,1.7-1.2,1.4-.4,2.2-.4,1.6.2,2.3.5c.7.3,1.2.8,1.6,1.4s.7,1.2.9,2c.2.7.3,1.5.2,2.3h-7.5c0,.9.3,1.6.7,2ZM144.4,6.8c-.3-.4-.9-.6-1.5-.6s-.8,0-1.1.2c-.3.2-.5.3-.7.6-.2.2-.3.5-.4.7s-.1.5-.1.7h4.6c-.1-.7-.4-1.3-.7-1.6Z"/>
    <path class="cls-1" d="M151.7,4.4v1.4h0c.4-.6.8-1,1.4-1.3.6-.3,1.2-.4,1.8-.4s1.4.1,1.9.3c.5.2.9.5,1.1.9.3.4.5.8.6,1.3.1.5.2,1.1.2,1.8v6.4h-2.8v-5.8c0-.9-.1-1.5-.4-1.9s-.7-.6-1.4-.6-1.3.2-1.7.7c-.3.5-.5,1.2-.5,2.3v5.4h-2.8V4.4h2.7Z"/>
    <path class="cls-1" d="M166,4.4v1.9h-2.1v5.1c0,.5,0,.8.2,1,.2.2.5.2,1,.2s.3,0,.5,0c.1,0,.3,0,.4,0v2.2c-.2,0-.5,0-.8,0-.3,0-.6,0-.9,0-.4,0-.9,0-1.2,0-.4,0-.7-.2-1-.3-.3-.2-.5-.4-.7-.7-.2-.3-.3-.7-.3-1.3v-6.1h-1.7v-1.9h1.7V1.3h2.8v3.1h2.1Z"/>
    <path class="cls-1" d="M169.8,12.2c.4.4,1,.6,1.8.6s1.1-.1,1.5-.4c.4-.3.7-.6.8-.9h2.5c-.4,1.2-1,2.1-1.8,2.7-.8.5-1.8.8-3,.8s-1.5-.1-2.2-.4-1.2-.6-1.7-1.1c-.5-.5-.8-1.1-1-1.7-.2-.7-.4-1.4-.4-2.2s.1-1.5.4-2.2c.3-.7.6-1.2,1.1-1.7s1-.9,1.7-1.2,1.4-.4,2.2-.4,1.6.2,2.3.5c.7.3,1.2.8,1.6,1.4s.7,1.2.9,2c.2.7.3,1.5.2,2.3h-7.5c0,.9.3,1.6.7,2ZM173,6.8c-.3-.4-.9-.6-1.5-.6s-.8,0-1.1.2c-.3.2-.5.3-.7.6-.2.2-.3.5-.4.7s-.1.5-.1.7h4.6c-.1-.7-.4-1.3-.7-1.6Z"/>
    <path class="cls-1" d="M180.3,4.4v1.9h0c.1-.3.3-.6.5-.9.2-.3.5-.5.8-.7s.6-.3.9-.5c.3-.1.7-.2,1-.2s.4,0,.6.1v2.6c-.1,0-.3,0-.5,0-.2,0-.4,0-.5,0-.5,0-1,0-1.3.3-.4.2-.7.4-.9.7-.2.3-.4.6-.5,1,0,.4-.1.8-.1,1.3v4.7h-2.8V4.4h2.7Z"/>
  </g>
  <g>
    <path class="cls-1" d="M271.6,15.7h0s0,0,0,0c-.4,0-.7,0-1.1,0-.4,0-.7,0-1.1,0-1,0-1.9.2-2.9.3-2,.3-4,.6-6.1.2-.4,0-.4-.4-.5-.9v-.2s0,0,0,0c0-.2-.2-.3-.3-.3-.2,0-.4,0-.6.2-.1,0-.3.2-.4.2h0s0,0,0,0c-.5.1-1,.2-1.5.3-1.7.4-3.4.8-5.1.7-.3-.1-.3-.4-.3-.8,0-.4,0-.9-.6-1h0s0,0,0,0c-1.4.6-2.8,1-4.3,1.4h-.4c-.6.4-1.3.5-1.9.7-.2,0-.4,0-.6.1,0,0-.2,0-.3,0-.6.1-1.1.2-1.3-.3-.1-.4,0-.7.1-1,0-.2.1-.4.2-.7h0s0,0,0,0c0-.2-.3-.4-.6-.4h0c-1.4.2-2.8.7-4.1,1.1-1.5.5-3.1,1-4.7,1.2-.2-.2-.2-.5,0-.8,0-.2.1-.5,0-.7,0-.3-.3-.4-.6-.5,0,0-.1,0-.2,0h0s0,0,0,0c-1.1.3-2.3.7-3.4,1.2-1,.4-2,.8-3,1.1,0,0-.2,0-.3,0-.6.2-1.3.4-1.7,0-.2-.3-.1-.7,0-1.1,0-.2.1-.4.1-.6h0s0,0,0,0c-.1-.2-.3-.4-.6-.4h0c-.2,0-.5.1-.7.2-1,.3-2.1.6-3.1,1-.5.2-1,.4-1.4.5-.9.4-1.9.7-2.9.9-.3.1-.4,0-.5,0-.1,0-.3,0-.5,0-.2-.3-.1-.6,0-.9.1-.4.3-.8-.1-1.1h0s0,0,0,0c-1.1.2-2.2.6-3.2,1-.7.3-1.4.5-2.2.8-.5.2-1,.4-1.5.6-1.8.7-3.7,1.5-5.8,1.5-.2,0-.3,0-.5,0-.4,0-.9,0-1.1-.4h0c-.1-.1-.2-.1-.3,0-.2,0-.2.3-.2.5h0s0,0,0,0c.4.7,1.3.9,2,.9s.1,0,.1,0c1.8-.2,3.6-.7,5.7-1.6.8-.3,1.6-.6,2.4-.8,1.2-.4,2.5-.9,3.8-1.3,0,.2.1.3.2.5.2.6.4,1.3,1.2,1.5h.1c.6,0,1.2,0,1.7-.2.8-.3,1.5-.6,2.3-.9,1.4-.6,2.8-1.2,4.3-1.5,0,.2.1.4.2.6.1.6.3,1.1,1,1.5l.8.2h0s0,0,0,0c1.5-.3,2.8-.9,4.1-1.4.8-.3,1.7-.7,2.6-1h0c.2,0,.3-.1.4,0,0,0,0,.2,0,.2,0,.7.1,1.5.9,1.7,1.4,0,2.7-.4,3.9-.9.2,0,.3-.1.5-.2.3,0,.5-.2.8-.3,1-.3,2.1-.7,3.1-.8,0,.2,0,.4,0,.5,0,.2,0,.5.2.7.4.7,1,1.1,1.8,1.1,1.4-.2,2.7-.7,4-1.2.6-.2,1.3-.5,1.9-.7.1,0,.3,0,.4-.1.2,0,.4,0,.6-.2,0,0,.2-.1.3,0,.1,0,.2.3.2.5,0,.2.1.4.2.5.3.6,1.1.8,1.6.9h0s0,0,0,0c2.1-.3,4.2-.8,6.5-1.4.1.1.2.3.3.4,0,.2.2.4.4.5.5.4,1.2.6,2.2.5.9,0,1.8-.2,2.6-.3,2-.3,4.1-.5,6.1-.6,0,0,.1,0,.2.1.1.1.3.2.5.2.1,0,.2-.1.2-.3.2-.3.1-.7-.1-.9Z"/>
    <rect class="cls-1" x="206.3" y="2.8" width="60.8" height=".9"/>
    <rect class="cls-1" x="212.3" width="48.4" height=".9"/>
    <g>
      <polygon class="cls-1" points="209.1 5.1 210.9 5.1 210.9 11 209.1 11 209.1 5.1 209.1 5.1"/>
      <polygon class="cls-1" points="211.9 5.1 213.7 5.1 213.7 11 211.9 11 211.9 5.1 211.9 5.1"/>
      <polygon class="cls-1" points="214.7 5.1 216.5 5.1 216.5 11 214.7 11 214.7 5.1 214.7 5.1"/>
      <polygon class="cls-1" points="217.4 5.1 219.3 5.1 219.3 11 217.4 11 217.4 5.1 217.4 5.1"/>
      <polygon class="cls-1" points="220.2 5.1 222 5.1 222 11 220.2 11 220.2 5.1 220.2 5.1"/>
      <polygon class="cls-1" points="223 5.1 224.8 5.1 224.8 11 223 11 223 5.1 223 5.1"/>
      <polygon class="cls-1" points="248.6 5.1 250.4 5.1 250.4 11 248.6 11 248.6 5.1 248.6 5.1"/>
      <polygon class="cls-1" points="251.4 5.1 253.2 5.1 253.2 11 251.4 11 251.4 5.1 251.4 5.1"/>
      <polygon class="cls-1" points="254.1 5.1 256 5.1 256 11 254.1 11 254.1 5.1 254.1 5.1"/>
      <polygon class="cls-1" points="256.9 5.1 258.8 5.1 258.8 11 256.9 11 256.9 5.1 256.9 5.1"/>
      <polygon class="cls-1" points="259.7 5.1 261.5 5.1 261.5 11 259.7 11 259.7 5.1 259.7 5.1"/>
      <polygon class="cls-1" points="262.5 5.1 264.3 5.1 264.3 11 262.5 11 262.5 5.1 262.5 5.1"/>
      <polygon class="cls-1" points="227.5 5.1 229.3 5.1 229.3 11 227.5 11 227.5 5.1 227.5 5.1"/>
      <polygon class="cls-1" points="244.1 5.1 246 5.1 246 11 244.1 11 244.1 5.1 244.1 5.1"/>
      <polygon class="cls-1" points="230.2 5.1 232.1 5.1 232.1 11 230.2 11 230.2 5.1 230.2 5.1"/>
      <polygon class="cls-1" points="233 5.1 234.9 5.1 234.9 11 233 11 233 5.1 233 5.1"/>
      <polygon class="cls-1" points="235.8 5.1 237.6 5.1 237.6 11 235.8 11 235.8 5.1 235.8 5.1"/>
      <polygon class="cls-1" points="238.6 5.1 240.4 5.1 240.4 11 238.6 11 238.6 5.1 238.6 5.1"/>
      <polygon class="cls-1" points="241.3 5.1 243.2 5.1 243.2 11 241.3 11 241.3 5.1 241.3 5.1"/>
    </g>
  </g>
</svg>