<svg width="126px" height="86px" viewBox="0 0 126 86" version="1.1" xmlns="http://www.w3.org/2000/svg" xmlns:xlink="http://www.w3.org/1999/xlink">
    <g id="osl/logo" stroke="none" stroke-width="1" fill="none" fill-rule="evenodd">
        <g id="Group-25">
            <polygon id="Fill-1" fill="#000000" points="59 20.7836537 49.2943816 20.7836537 49.2943816 15.4639776 58.0985174 15.4639776 58.0985174 11.4722631 49.2943816 11.4722631 49.2943816 6.21644803 59 6.21644803 59 2 45 2 45 25 59 25"></polygon>
            <polygon id="Fill-2" fill="#000000" points="82 2 77.6653401 2 77.6653401 17.2158821 68.4003565 2 63 2 63 25 67.3321 25 67.3321 8.68343215 77.4452891 25 82 25"></polygon>
            <path d="M28.8653949,74.6553984 L31.9370289,65.9622159 L35.0087611,74.6553984 L28.8653949,74.6553984 Z M29.5216304,61 L21,84 L25.5740989,84 L27.4245258,78.7441065 L36.449532,78.7441065 L38.2975029,84 L43,84 L34.5399653,61 L29.5216304,61 Z" id="Fill-3" fill="#000000"></path>
            <g id="Group-24">
                <path d="M56.3643665,79.339493 C55.7722061,79.8540085 54.9414184,80.1126023 53.8667533,80.1126023 L49.1374939,80.1126023 L49.1374939,74.2096771 L53.9313382,74.2096771 C55.0234373,74.2096771 55.8519467,74.4880638 56.4091401,75.0447381 C56.968909,75.6039855 57.2475552,76.3247427 57.2475552,77.2070097 C57.2475552,78.1117415 56.9540505,78.8225033 56.3643665,79.339493 L56.3643665,79.339493 Z M49.1374939,65.0210373 L53.3940552,65.0210373 C54.4662439,65.0210373 55.2747439,65.2695367 55.8121259,65.7641604 C56.349508,66.2587841 56.6156731,66.9372835 56.6156731,67.7997577 C56.6156731,68.6621328 56.3370269,69.3456794 55.777258,69.8527726 C55.2200646,70.3571938 54.4364278,70.6082663 53.4238712,70.6082663 L49.1374939,70.6082663 L49.1374939,65.0210373 Z M60.439258,74.0033365 C60.0835458,73.5510695 59.6656259,73.1657024 59.1929278,72.8501052 C58.7177533,72.536982 58.2052344,72.3132237 57.6605222,72.1890235 C58.6058193,71.8708532 59.3845033,71.2842916 59.996475,70.4193434 C60.6059703,69.5568693 60.9119561,68.547829 60.9119561,67.3896495 C60.9119561,66.5271754 60.7626778,65.7268509 60.4542156,64.991249 C60.1482297,64.2530741 59.7078241,63.6167335 59.1282439,63.079951 C58.5511401,62.5430695 57.8371401,62.1230649 56.9962486,61.8173641 C56.1528807,61.5141374 55.1827203,61.3600499 54.0881448,61.3600499 L44.8412108,61.3600499 L44.8412108,83.7437024 L54.6876354,83.7437024 C55.7423901,83.7437024 56.6952156,83.5846667 57.5485882,83.2689705 C58.3992863,82.9533733 59.1282439,82.5233733 59.7278335,81.9741213 C60.3298005,81.4273434 60.7925929,80.7711109 61.1184892,80.0031478 C61.4442863,79.2350856 61.6109986,78.3975505 61.6109986,77.4929176 C61.6109986,76.7970005 61.501541,76.1557116 61.2925316,75.5666759 C61.0836212,74.9776403 60.7975458,74.4557024 60.439258,74.0033365 L60.439258,74.0033365 Z" id="Fill-4" fill="#000000"></path>
                <polygon id="Fill-6" fill="#000000" points="31.9817321 54.1458771 31.9817321 35.8979438 38.4200151 35.8979438 38.4200151 31.7622246 21.1551425 31.7622246 21.1551425 35.8979438 27.5884726 35.8979438 27.5884726 54.1458771"></polygon>
                <polygon id="Fill-8" fill="#000000" points="48.1316335 44.923441 48.1316335 54.1468173 52.4951759 54.1468173 52.4951759 44.923441 60.3937514 31.7631648 55.4953033 31.7631648 50.4701618 40.7255722 45.4448222 31.7631648 40.3276571 31.7631648"></polygon>
                <polygon id="Fill-10" fill="#000000" points="67.2541542 31.7621455 62.8956637 31.7621455 62.8956637 54.1457979 77.2399514 54.1457979 77.2399514 49.9778163 67.2541542 49.9778163"></polygon>
                <polygon id="Fill-12" fill="#000000" points="94.6660882 50.0424301 84.809659 50.0424301 84.809659 44.8653093 93.7506071 44.8653093 93.7506071 40.9805636 84.809659 40.9805636 84.809659 35.8655924 94.6660882 35.8655924 94.6660882 31.7621356 80.448692 31.7621356 80.448692 54.145788 94.6660882 54.145788"></polygon>
                <polygon id="Fill-14" fill="#000000" points="8.51348915 61.3590108 4.15252217 61.3590108 4.15252217 83.7427623 18.4992863 83.7427623 18.4992863 79.5745827 8.51348915 79.5745827"></polygon>
                <path d="M13.2474637,41.1752166 L11.7796429,40.68564 C10.4337608,40.2308 9.4685533,39.7585422 8.88144481,39.2688667 C8.29443538,38.7817643 8.0008316,38.1927287 8.0008316,37.4968115 C8.0008316,36.7810025 8.31177028,36.1993892 8.93117123,35.7545445 C9.54819481,35.312075 10.3367844,35.0884157 11.2920863,35.0884157 C12.2250014,35.0884157 12.9912042,35.3319669 13.5882184,35.8216423 C14.1853316,36.3087448 14.6032514,36.9102499 14.8420769,37.6260589 L18.7179637,36.0005699 C18.2626995,34.6758334 17.4267608,33.5226021 16.2103458,32.5334536 C14.9938316,31.5466803 13.332058,31.0520566 11.2274024,31.0520566 C9.77206274,31.0520566 8.46847783,31.3404387 7.31912406,31.9145307 C6.16729387,32.4911959 5.276775,33.2790509 4.64736934,34.2757206 C4.01548726,35.2748644 3.70197311,36.3808898 3.70197311,37.5937965 C3.70197311,39.2216608 4.23192594,40.5712373 5.29906274,41.6473754 C6.36134575,42.7186642 7.64254387,43.5165146 9.14275613,44.0384525 L10.5756099,44.5579162 C12.269775,45.1892097 13.4464684,45.7782453 14.1106429,46.3324456 C14.7699637,46.8866458 15.1032892,47.5976055 15.1032892,48.4650278 C15.1032892,49.3323512 14.7550061,50.0108506 14.0609165,50.498052 C13.3643505,50.9876285 12.5309873,51.2311797 11.5508222,51.2311797 C10.3790816,51.2311797 9.40386934,50.8634283 8.62023255,50.1252534 C7.83907217,49.3870785 7.28435519,48.4003052 6.96093538,47.1625583 L2.82135991,48.7905215 C3.45324198,50.8932166 4.55029387,52.5210808 6.11261462,53.671838 C7.67493538,54.8226941 9.47845896,55.3967862 11.5209071,55.3967862 C12.8220156,55.3967862 14.0882561,55.1358173 15.314775,54.6138794 C16.5411948,54.0944157 17.5462231,53.3090348 18.3273835,52.2577367 C19.1110203,51.2038656 19.5016005,49.9189128 19.5016005,48.4003052 C19.5016005,46.5562039 18.9642184,45.0624364 17.8895533,43.9240497 C16.8124118,42.785762 15.2650486,41.8686596 13.2474637,41.1752166" id="Fill-16" fill="#000000"></path>
                <polygon id="Fill-18" fill="#FE2234" points="121.513707 0.00745201381 94.6660981 85.9009664 99.0643104 85.9009664 125.912018 0.00745201381"></polygon>
                <path d="M17.9166651,16.6411484 C17.5185566,17.5781427 16.9862264,18.351153 16.3220519,18.9600806 C15.6577783,19.5714822 14.9040566,20.0287963 14.0606887,20.3344971 C13.2173208,20.6401979 12.3665236,20.7917123 11.5032453,20.7917123 C10.6375896,20.7917123 9.78926887,20.6401979 8.96085849,20.3344971 C8.12739623,20.0287963 7.37862736,19.5714822 6.71445283,18.9600806 C6.05017925,18.351153 5.51775,17.5781427 5.11974057,16.6411484 C4.71925472,15.7041542 4.51767453,14.6055512 4.51767453,13.3429643 C4.51767453,12.0779033 4.71925472,10.9793993 5.11974057,10.0424051 C5.51775,9.10541082 6.05017925,8.33240046 6.71445283,7.72099885 C7.37862736,7.11207135 8.12739623,6.65475719 8.96085849,6.34905639 C9.78926887,6.04335558 10.6375896,5.89174223 11.5032453,5.89174223 C12.3665236,5.89174223 13.2173208,6.04335558 14.0606887,6.34905639 C14.9040566,6.65475719 15.6577783,7.11207135 16.3220519,7.72099885 C16.9862264,8.33240046 17.5185566,9.10541082 17.9166651,10.0424051 C18.3171509,10.9793993 18.5187311,12.0779033 18.5187311,13.3429643 C18.5187311,14.6055512 18.3171509,15.7041542 17.9166651,16.6411484 M23.0365047,13.3728516 C23.0365047,11.5633878 22.7205142,9.9379977 22.0886321,8.49648331 C21.45675,7.05486997 20.6133821,5.82711853 19.5585283,4.81807825 C18.5087264,3.80893901 17.2773538,3.03355351 15.8792689,2.49667204 C14.4786085,1.95979056 13.0207925,1.69139931 11.5032453,1.69139931 C9.98579717,1.69139931 8.53293396,1.95979056 7.1422783,2.49667204 C5.74914623,3.03355351 4.52767925,3.80893901 3.47787736,4.81807825 C2.42302358,5.82711853 1.57975472,7.05486997 0.95025,8.49648331 C0.315891509,9.9379977 0,11.5633878 0,13.3728516 C0,15.1822163 0.315891509,16.8052313 0.95025,18.2342762 C1.57975472,19.6658941 2.42302358,20.8863222 3.47787736,21.8978366 C4.52767925,22.9068769 5.74914623,23.6798872 7.1422783,24.2166697 C8.53293396,24.7535512 9.98579717,25.0220414 11.5032453,25.0220414 C13.0207925,25.0220414 14.4786085,24.7535512 15.8792689,24.2166697 C17.2773538,23.6798872 18.5087264,22.9068769 19.5585283,21.8978366 C20.6133821,20.8863222 21.45675,19.6658941 22.0886321,18.2342762 C22.7205142,16.8052313 23.0365047,15.1822163 23.0365047,13.3728516" id="Fill-20" fill="#000000"></path>
                <path d="M30.6808415,5.95382255 L34.3104736,5.95382255 C35.4050491,5.95382255 36.2632755,6.23715742 36.8827755,6.80630127 C37.5072283,7.37554407 37.818167,8.16339908 37.818167,9.17243936 C37.818167,10.141696 37.5072283,10.9147063 36.8827755,11.4938456 C36.2632755,12.0729848 35.4050491,12.363742 34.3104736,12.363742 L30.6808415,12.363742 L30.6808415,5.95382255 Z M30.6459736,16.1191413 L34.8477566,16.1191413 C35.9423321,16.1191413 36.9424075,15.945162 37.847983,15.5996776 C38.7535585,15.251818 39.5347189,14.7720389 40.1889877,14.1607362 C40.8383038,13.5517098 41.3408179,12.8161079 41.6865255,11.9511597 C42.0349075,11.0911597 42.20895,10.1516914 42.20895,9.14265109 C42.20895,8.13103774 42.0349075,7.19909068 41.6865255,6.34898711 C41.3408179,5.4965084 40.8383038,4.75833349 40.1889877,4.13950955 C39.5347189,3.51811254 38.7535585,3.03348423 37.847983,2.68552566 C36.9424075,2.3400412 35.9423321,2.16606191 34.8477566,2.16606191 L26.287483,2.16606191 L26.287483,24.5497144 L30.6459736,24.5497144 L30.6459736,16.1191413 Z" id="Fill-22" fill="#000000"></path>
            </g>
        </g>
    </g>
</svg>
