<svg xmlns="http://www.w3.org/2000/svg" width="299" height="236" viewBox="0 0 299 236"><g fill="none" fill-rule="evenodd"><path fill="#DC3D50" d="M298.036 61.007l-.626 35.744-34.145-4.142-1.277-29.917 36.048-1.685"/><path fill="#D8117D" d="M298.751 18.921l-.358 21.732-35.584 1.78.912-22.378 35.03-1.134"/><path fill="#00A3DB" d="M2.025 60.694L.524 89.729l38.371.741.951-23.335-37.821-6.441"/><path fill="#59A540" d="M205.684 60.886l35.394-6.765-.579 59.957-34.782-8.986-.033-44.206"/><path fill="#D8117D" d="M71.579 60.724l.449 37.154 33.404 8.843.765-51.147-34.618 5.15"/><path fill="#00A3DB" d="M138.045 109.987l5.634-33.639 26.989 1.211 3.522 24.957-36.145 7.471"/><path fill="#59A540" d="M14.604 12.249l1.212 22.579 31.267 14.858-.17-34.454-32.309-2.983"/><path fill="#E46B2A" d="M69.828.911l.066 29.993 38.373 4.565-.772-33.985L69.828.911"/><path fill="#DC3D50" d="M152.886 17.488l9.568 6.096 5.163 36.368-20.183-5.758 5.452-36.706"/><path fill="#FFF101" d="M205.069 13.074l21.33-.626 2.424 23.161-25.208 4.382 1.454-26.917"/><path fill="#D8117D" d="M295.258 198.64s-3.23-1.927-10.031-1.927c-6.346 0-11.333 3.116-11.333 9.746 0 6.63 5.101 9.181 9.577 10.994 4.307 1.757 9.236 3.173 9.236 7.99 0 4.703-4.193 6.12-9.009 6.12-5.667 0-10.257-3.116-10.257-3.116v4.816s3.74 2.55 10.54 2.55c7.593 0 13.656-3.797 13.656-10.88s-5.156-9.066-10.313-11.276c-4.023-1.757-8.613-3.343-8.613-7.367 0-3.91 2.72-5.327 6.857-5.327 5.213 0 9.69 2.323 9.69 2.323v-4.646zm-80.244 2.777v-4.591h-31.96v4.591h13.43v34.113h4.817v-34.113h13.713zm-112.317-.567s2.72-.114 5.1-.114c3.57 0 6.063.671 7.65 2.315 1.304 1.293 1.984 3.107 1.984 5.364 0 2.597-1.077 4.524-2.438 5.818-1.643 1.587-3.739 2.087-6.743 2.087-1.699 0-5.553-.17-5.553-.17v-15.3zm27.313 30.769s-.453.057-1.02.057c-2.153 0-3.796-.784-8.442-5.77-2.268-2.428-4.081-4.921-5.384-6.734 3.74-1.52 7.479-4.978 7.479-11.088 0-3.05-.906-5.657-2.719-7.631-2.154-2.266-5.667-3.627-11.107-3.627-3.797 0-10.936.057-10.936.057v38.647h4.816v-15.3s4.703.17 6.29.17c.454 0 1.19-.057 1.19-.057s3.57 5.1 6.63 8.784c3.57 4.306 6.687 6.572 10.767 6.572 1.246 0 2.436-.226 2.436-.226v-3.854zM23.473 216.943H12.764l5.383-13.657 5.326 13.657zm12.524 18.587L20.47 196.826h-4.42L.524 235.53h4.929l5.611-14.336h14.109l5.611 14.336h5.213zm259.961-66.664v-3.529h-13.593v-9.802h12.112v-3.529h-12.112v-9.367h12.548v-3.529h-16.25v29.756h17.295zm-82.212 0h3.702v-26.663s1.22-.087 3.05-.087c2.744 0 4.618.516 5.838 1.779 1.002.995 1.525 2.389 1.525 4.125 0 4.167-2.832 5.903-6.1 5.903-1.873 0-3.093-.516-3.093-.516v3.216s1.481.437 3.617.437c4.923 0 9.584-2.92 9.584-9.302 0-2.345-.697-4.342-2.091-5.86-1.656-1.742-4.313-2.788-8.496-2.788-2.919 0-7.536.044-7.536.044v29.712zm-57.207-14.29h-8.234l4.139-10.5 4.095 10.5zm9.628 14.29L154.23 139.11h-3.398l-11.937 29.756h3.79l4.314-11.022h10.847l4.314 11.022h4.007zm-74.501 0V139.11h-3.703v12.503H71.93V139.11h-3.703v29.756h3.703V155.23h16.033v13.636h3.703zm-73.718-28.362s-2.483-1.481-7.712-1.481c-4.879 0-8.713 2.396-8.713 7.493s3.921 7.058 7.363 8.452c3.311 1.351 7.101 2.44 7.101 6.144 0 3.615-3.224 4.704-6.927 4.704-4.356 0-7.885-2.396-7.885-2.396v3.703s2.875 1.961 8.103 1.961c5.838 0 10.5-2.919 10.5-8.365 0-5.445-3.965-6.97-7.93-8.669-3.093-1.351-6.622-2.571-6.622-5.664 0-3.006 2.091-4.096 5.272-4.096 4.009 0 7.45 1.786 7.45 1.786v-3.572z"/></g></svg>